<?xml version="1.0" encoding="utf-8"?>
<!-- Generator: Adobe Illustrator 28.2.0, SVG Export Plug-In . SVG Version: 6.00 Build 0)  -->
<svg version="1.1" id="Layer_1" xmlns="http://www.w3.org/2000/svg" xmlns:xlink="http://www.w3.org/1999/xlink" x="0px" y="0px"
	 viewBox="0 0 846.03 350.93" style="enable-background:new 0 0 846.03 350.93;" xml:space="preserve">
<style type="text/css">
	.st0{fill:#FFFFFF;stroke:#000000;stroke-width:0.5;stroke-miterlimit:10;}
	.st1{clip-path:url(#SVGID_00000018234060253285393260000008727990291504024495_);fill:#FFFFFF;}
	.st2{fill:#FFFFFF;}
	.st3{fill:none;stroke:#272626;stroke-width:0.5;stroke-linejoin:round;stroke-miterlimit:10;stroke-opacity:0.149;}
	.st4{fill:none;stroke:#272626;stroke-width:0.5;stroke-linecap:square;stroke-linejoin:round;stroke-miterlimit:10;}
	.st5{fill:#272626;}
	.st6{font-family:'Helvetica';}
	.st7{font-size:5.7858px;}
	.st8{font-family:'HelveticaNeue-Bold';}
	.st9{font-size:7.5215px;}
	.st10{fill:#010101;}
	.st11{fill:none;stroke:#010101;stroke-width:1.2;stroke-linejoin:round;stroke-miterlimit:10;}
	.st12{fill:none;stroke:#3A53A4;stroke-linejoin:bevel;stroke-miterlimit:1;stroke-dasharray:10,6;}
	.st13{fill:#3A53A4;}
	.st14{font-size:6.9429px;}
	.st15{fill:none;stroke:#272626;stroke-width:0.5;stroke-miterlimit:10;}
	.st16{fill:none;stroke:#010101;stroke-width:0.5;stroke-miterlimit:10;}
	.st17{font-size:5.5544px;}
	.st18{clip-path:url(#SVGID_00000124135898936612983280000013698489373659230350_);fill:#FFFFFF;}
	.st19{font-size:6.2856px;}
	.st20{font-size:7.5428px;}
	.st21{font-size:8.7999px;}
	.st22{fill:none;stroke:#ED2224;stroke-width:1.2;stroke-linejoin:round;stroke-miterlimit:10;}
	.st23{fill:none;stroke:#010101;stroke-width:1.2;stroke-linejoin:bevel;stroke-miterlimit:1;stroke-dasharray:10,6;}
	.st24{font-size:6.0342px;}
	.st25{stroke:#000000;stroke-width:0.5;stroke-miterlimit:10;}
	.st26{font-family:'MyriadPro-Regular';}
	.st27{font-size:18px;}
	.st28{stroke:#000000;stroke-width:0.25;stroke-miterlimit:10;}
</style>
<rect class="st0" width="846.03" height="350.93"/>
<g>
	<g>
		<g>
			<defs>
				<rect id="SVGID_1_" x="410.94" y="22.45" width="435.09" height="320.53"/>
			</defs>
			<clipPath id="SVGID_00000166646911112440359790000011385470849127211661_">
				<use xlink:href="#SVGID_1_"  style="overflow:visible;"/>
			</clipPath>
			
				<rect x="410.94" y="22.45" style="clip-path:url(#SVGID_00000166646911112440359790000011385470849127211661_);fill:#FFFFFF;" width="435.09" height="320.53"/>
		</g>
	</g>
	<g>
		<rect x="410.94" y="22.45" class="st2" width="435.09" height="320.53"/>
		<path class="st2" d="M467.64,307.69h337.02V46.46H467.64V307.69z"/>
	</g>
	<g>
		<line class="st3" x1="467.64" y1="307.69" x2="467.64" y2="46.46"/>
		<line class="st3" x1="501.34" y1="307.69" x2="501.34" y2="46.46"/>
		<line class="st3" x1="535.05" y1="307.69" x2="535.05" y2="46.46"/>
		<line class="st3" x1="568.75" y1="307.69" x2="568.75" y2="46.46"/>
		<line class="st3" x1="602.45" y1="307.69" x2="602.45" y2="46.46"/>
		<line class="st3" x1="636.15" y1="307.69" x2="636.15" y2="46.46"/>
		<line class="st3" x1="669.85" y1="307.69" x2="669.85" y2="46.46"/>
		<line class="st3" x1="703.56" y1="307.69" x2="703.56" y2="46.46"/>
		<line class="st3" x1="737.26" y1="307.69" x2="737.26" y2="46.46"/>
		<line class="st3" x1="770.96" y1="307.69" x2="770.96" y2="46.46"/>
		<line class="st3" x1="804.66" y1="307.69" x2="804.66" y2="46.46"/>
		<line class="st3" x1="804.66" y1="307.69" x2="467.64" y2="307.69"/>
		<line class="st3" x1="804.66" y1="281.57" x2="467.64" y2="281.57"/>
		<line class="st3" x1="804.66" y1="255.44" x2="467.64" y2="255.44"/>
		<line class="st3" x1="804.66" y1="229.32" x2="467.64" y2="229.32"/>
		<line class="st3" x1="804.66" y1="203.2" x2="467.64" y2="203.2"/>
		<line class="st3" x1="804.66" y1="177.08" x2="467.64" y2="177.08"/>
		<line class="st3" x1="804.66" y1="150.95" x2="467.64" y2="150.95"/>
		<line class="st3" x1="804.66" y1="124.83" x2="467.64" y2="124.83"/>
		<line class="st3" x1="804.66" y1="98.71" x2="467.64" y2="98.71"/>
		<line class="st3" x1="804.66" y1="72.58" x2="467.64" y2="72.58"/>
		<line class="st3" x1="804.66" y1="46.46" x2="467.64" y2="46.46"/>
		<line class="st4" x1="467.64" y1="307.69" x2="804.66" y2="307.69"/>
		<line class="st4" x1="467.64" y1="46.46" x2="804.66" y2="46.46"/>
		<line class="st4" x1="467.64" y1="307.69" x2="467.64" y2="304.32"/>
		<line class="st4" x1="501.34" y1="307.69" x2="501.34" y2="304.32"/>
		<line class="st4" x1="535.05" y1="307.69" x2="535.05" y2="304.32"/>
		<line class="st4" x1="568.75" y1="307.69" x2="568.75" y2="304.32"/>
		<line class="st4" x1="602.45" y1="307.69" x2="602.45" y2="304.32"/>
		<line class="st4" x1="636.15" y1="307.69" x2="636.15" y2="304.32"/>
		<line class="st4" x1="669.85" y1="307.69" x2="669.85" y2="304.32"/>
		<line class="st4" x1="703.56" y1="307.69" x2="703.56" y2="304.32"/>
		<line class="st4" x1="737.26" y1="307.69" x2="737.26" y2="304.32"/>
		<line class="st4" x1="770.96" y1="307.69" x2="770.96" y2="304.32"/>
		<line class="st4" x1="804.66" y1="307.69" x2="804.66" y2="304.32"/>
		<line class="st4" x1="467.64" y1="46.46" x2="467.64" y2="49.83"/>
		<line class="st4" x1="501.34" y1="46.46" x2="501.34" y2="49.83"/>
		<line class="st4" x1="535.05" y1="46.46" x2="535.05" y2="49.83"/>
		<line class="st4" x1="568.75" y1="46.46" x2="568.75" y2="49.83"/>
		<line class="st4" x1="602.45" y1="46.46" x2="602.45" y2="49.83"/>
		<line class="st4" x1="636.15" y1="46.46" x2="636.15" y2="49.83"/>
		<line class="st4" x1="669.85" y1="46.46" x2="669.85" y2="49.83"/>
		<line class="st4" x1="703.56" y1="46.46" x2="703.56" y2="49.83"/>
		<line class="st4" x1="737.26" y1="46.46" x2="737.26" y2="49.83"/>
		<line class="st4" x1="770.96" y1="46.46" x2="770.96" y2="49.83"/>
		<line class="st4" x1="804.66" y1="46.46" x2="804.66" y2="49.83"/>
	</g>
	<g transform="translate(98,497)">
		<text transform="matrix(1 0 0 1 367.9054 -181.21)" class="st5 st6 st7">0</text>
	</g>
	<g transform="translate(156.25,497)">
		<text transform="matrix(1 0 0 1 343.358 -181.21)" class="st5 st6 st7">5</text>
	</g>
	<g transform="translate(214.5,497)">
		<text transform="matrix(1 0 0 1 317.0739 -181.21)" class="st5 st6 st7">10</text>
	</g>
	<g transform="translate(272.75,497)">
		<text transform="matrix(1 0 0 1 292.526 -181.21)" class="st5 st6 st7">15</text>
	</g>
	<g transform="translate(331,497)">
		<text transform="matrix(1 0 0 1 267.9791 -181.21)" class="st5 st6 st7">20</text>
	</g>
	<g transform="translate(389.25,497)">
		<text transform="matrix(1 0 0 1 243.4303 -181.21)" class="st5 st6 st7">25</text>
	</g>
	<g transform="translate(447.5,497)">
		<text transform="matrix(1 0 0 1 218.8834 -181.21)" class="st5 st6 st7">30</text>
	</g>
	<g transform="translate(505.75,497)">
		<text transform="matrix(1 0 0 1 194.3346 -181.21)" class="st5 st6 st7">35</text>
	</g>
	<g transform="translate(564,497)">
		<text transform="matrix(1 0 0 1 169.7877 -181.21)" class="st5 st6 st7">40</text>
	</g>
	<g transform="translate(622.25,497)">
		<text transform="matrix(1 0 0 1 145.2389 -181.21)" class="st5 st6 st7">45</text>
	</g>
	<g transform="translate(680.5,497)">
		<text transform="matrix(1 0 0 1 120.692 -181.21)" class="st5 st6 st7">50</text>
	</g>
	<g transform="translate(389.2503,510.5)">
		<text transform="matrix(1 0 0 1 223.18 -185.1631)" class="st5 st8 st9">Time / t (unit)</text>
	</g>
	<g>
		<line class="st4" x1="467.64" y1="307.69" x2="467.64" y2="46.46"/>
		<line class="st4" x1="804.66" y1="307.69" x2="804.66" y2="46.46"/>
		<line class="st4" x1="467.64" y1="307.69" x2="471.01" y2="307.69"/>
		<line class="st4" x1="467.64" y1="281.57" x2="471.01" y2="281.57"/>
		<line class="st4" x1="467.64" y1="255.44" x2="471.01" y2="255.44"/>
		<line class="st4" x1="467.64" y1="229.32" x2="471.01" y2="229.32"/>
		<line class="st4" x1="467.64" y1="203.2" x2="471.01" y2="203.2"/>
		<line class="st4" x1="467.64" y1="177.08" x2="471.01" y2="177.08"/>
		<line class="st4" x1="467.64" y1="150.95" x2="471.01" y2="150.95"/>
		<line class="st4" x1="467.64" y1="124.83" x2="471.01" y2="124.83"/>
		<line class="st4" x1="467.64" y1="98.71" x2="471.01" y2="98.71"/>
		<line class="st4" x1="467.64" y1="72.58" x2="471.01" y2="72.58"/>
		<line class="st4" x1="467.64" y1="46.46" x2="471.01" y2="46.46"/>
		<line class="st4" x1="804.66" y1="307.69" x2="801.29" y2="307.69"/>
		<line class="st4" x1="804.66" y1="281.57" x2="801.29" y2="281.57"/>
		<line class="st4" x1="804.66" y1="255.44" x2="801.29" y2="255.44"/>
		<line class="st4" x1="804.66" y1="229.32" x2="801.29" y2="229.32"/>
		<line class="st4" x1="804.66" y1="203.2" x2="801.29" y2="203.2"/>
		<line class="st4" x1="804.66" y1="177.08" x2="801.29" y2="177.08"/>
		<line class="st4" x1="804.66" y1="150.95" x2="801.29" y2="150.95"/>
		<line class="st4" x1="804.66" y1="124.83" x2="801.29" y2="124.83"/>
		<line class="st4" x1="804.66" y1="98.71" x2="801.29" y2="98.71"/>
		<line class="st4" x1="804.66" y1="72.58" x2="801.29" y2="72.58"/>
		<line class="st4" x1="804.66" y1="46.46" x2="801.29" y2="46.46"/>
	</g>
	<g transform="translate(94,493)">
		<text transform="matrix(1 0 0 1 367.8551 -183.2852)" class="st5 st6 st7">0</text>
	</g>
	<g transform="translate(94,447.85)">
		<text transform="matrix(1 0 0 1 363.2272 -164.2572)" class="st5 st6 st7">0.5</text>
	</g>
	<g transform="translate(94,402.7)">
		<text transform="matrix(1 0 0 1 367.8551 -145.2303)" class="st5 st6 st7">1</text>
	</g>
	<g transform="translate(94,357.55)">
		<text transform="matrix(1 0 0 1 363.2272 -126.2033)" class="st5 st6 st7">1.5</text>
	</g>
	<g transform="translate(94,312.4)">
		<text transform="matrix(1 0 0 1 367.8551 -107.1764)" class="st5 st6 st7">2</text>
	</g>
	<g transform="translate(94,267.25)">
		<text transform="matrix(1 0 0 1 363.2272 -88.1494)" class="st5 st6 st7">2.5</text>
	</g>
	<g transform="translate(94,222.1)">
		<text transform="matrix(1 0 0 1 367.8551 -69.1215)" class="st5 st6 st7">3</text>
	</g>
	<g transform="translate(94,176.95)">
		<text transform="matrix(1 0 0 1 363.2272 -50.0945)" class="st5 st6 st7">3.5</text>
	</g>
	<g transform="translate(94,131.8)">
		<text transform="matrix(1 0 0 1 367.8551 -31.0676)" class="st5 st6 st7">4</text>
	</g>
	<g transform="translate(94,86.65)">
		<text transform="matrix(1 0 0 1 363.2272 -12.0397)" class="st5 st6 st7">4.5</text>
	</g>
	<g transform="translate(94,41.5)">
		<text transform="matrix(1 0 0 1 367.8551 6.9873)" class="st5 st6 st7">5</text>
	</g>
	<g transform="translate(77,267.2498) rotate(-90)">
		<text transform="matrix(1 0 0 1 43.0203 376.7555)" class="st5 st8 st9">The number of Enzyme / #</text>
	</g>
	<g transform="translate(389.2504,39.875)">
		<text transform="matrix(1 0 0 1 170.5295 3.9111)" class="st10 st8 st9">Mimic of the Case of the Amplified System</text>
	</g>
	<g>
		<path class="st11" d="M467.64,307.69l0-0.12l0-0.12l0-0.12l0-1.01l0-1l0-1l0-0.99l0.01-7.9l0.01-6.06l0.01-5.88l0.01-5.71
			l0.01-5.54l0.02-13.5l0.02-12.51l0.02-11.6l0.02-10.76l0.02-9.98l0.05-20.26l0.05-17.11l0.05-14.48l0.05-12.27l0.05-10.41
			l0.05-8.85l0.09-13.12l0.09-9.8l0.09-7.36l0.09-5.57l0.09-4.26l0.09-3.29l0.11-2.96l0.11-2.25l0.11-1.74l0.11-1.38l0.11-1.12
			l0.11-0.92l0.15-1.04l0.15-0.84l0.15-0.7l0.15-0.59l0.15-0.51l0.15-0.44l0.27-0.66l0.27-0.52l0.27-0.42l0.27-0.33l0.27-0.26
			l0.27-0.2l0.27-0.15l0.55-0.17l0.55-0.05l0.55,0.02l0.55,0.09l0.55,0.13l0.55,0.16l0.55,0.18l0.91,0.33l0.91,0.35l0.91,0.37
			l0.91,0.37l0.91,0.38l1.85,0.78l1.85,0.79l1.85,0.8l1.85,0.81l1.85,0.83l6.51,3l6.51,3.16l6.51,3.31l6.51,3.49l6.51,3.69
			l15.79,9.85l15.79,11.36l15.79,13.18L585.39,143l13.48,15.53l13.48,17.6l13.48,19.55l9.53,14.67l9.53,14.93l7.61,11.74l7.61,11.2
			l7.61,10.35l6.14,7.57l6.14,6.75l6.14,5.91l5.03,4.22l5.03,3.68l5.03,3.18l5.03,2.72l7.52,3.33l7.52,2.59l7.52,1.98l7.52,1.52
			l7.52,1.17l8.04,0.95l8.04,0.73l8.04,0.56l8.04,0.43l8.04,0.34l8.08,0.27l8.08,0.21l4.45,0.1"/>
	</g>
	<g>
		<path class="st12" d="M467.64,46.46l0,0.13l0,0.13l0,0.13l0,1.11l0,1.11l0,1.1l0,1.1l0.01,8.72l0.01,6.69l0.01,6.49l0.01,6.3
			l0.01,6.11l0.02,14.88l0.02,13.77l0.02,12.76l0.02,11.82l0.02,10.95l0.05,22.17l0.05,18.65l0.05,15.7L468,219.5l0.05,11.16
			l0.05,9.42l0.09,13.8l0.09,10.12l0.09,7.42l0.09,5.45l0.09,4.02l0.09,2.97l0.11,2.53l0.11,1.79l0.11,1.27l0.11,0.91l0.11,0.66
			l0.11,0.49l0.15,0.48l0.15,0.33l0.15,0.23l0.15,0.17l0.15,0.13l0.15,0.1l0.27,0.14l0.27,0.1l0.27,0.08l0.27,0.06l0.27,0.05
			l0.27,0.04l0.27,0.02l0.55,0.02l0.55,0.01l0.55,0l0.55-0.02l0.55-0.03l0.55-0.03l0.55-0.03l0.91-0.06l0.91-0.07l0.91-0.07
			l0.91-0.07l0.91-0.08l1.85-0.16l1.85-0.16l1.85-0.16l1.85-0.16l1.85-0.17l6.51-0.62l6.51-0.67l6.51-0.72l6.51-0.77l6.51-0.84
			l15.79-2.32l15.79-2.8l15.79-3.38l15.79-4.3l13.48-4.32l13.48-4.87l13.48-5.25l9.53-3.68l9.53-3.36l7.61-2.23l7.61-1.61l7.61-0.86
			l6.14-0.08L680,250l6.14,1.02l5.03,1.2l5.03,1.48l5.03,1.72l5.03,1.91l7.52,3.1l7.52,3.27l7.52,3.33l7.52,3.29l7.52,3.17
			l8.04,3.21l8.04,3l8.04,2.77l8.04,2.55l8.04,2.32l8.08,2.12l8.08,1.92l4.45,0.97"/>
		<circle class="st13" cx="467.64" cy="307.69" r="0.58"/>
	</g>
	<g transform="translate(98.0003,492.9792)">
		<circle class="st13" cx="369.64" cy="-185.3" r="0.58"/>
	</g>
	<g transform="translate(98.0005,492.9584)">
		<circle class="st13" cx="369.64" cy="-185.29" r="0.58"/>
	</g>
	<g transform="translate(98.0008,492.9376)">
		<circle class="st13" cx="369.64" cy="-185.28" r="0.58"/>
	</g>
	<g transform="translate(98.0031,492.7639)">
		<circle class="st13" cx="369.64" cy="-185.21" r="0.58"/>
	</g>
	<g transform="translate(98.0053,492.5911)">
		<circle class="st13" cx="369.64" cy="-185.14" r="0.58"/>
	</g>
	<g transform="translate(98.0076,492.4192)">
		<circle class="st13" cx="369.64" cy="-185.07" r="0.58"/>
	</g>
	<g transform="translate(98.0098,492.2481)">
		<circle class="st13" cx="369.64" cy="-184.99" r="0.58"/>
	</g>
	<g transform="translate(98.0281,490.89)">
		<circle class="st13" cx="369.63" cy="-184.42" r="0.58"/>
	</g>
	<g transform="translate(98.0427,489.8524)">
		<circle class="st13" cx="369.62" cy="-183.98" r="0.58"/>
	</g>
	<g transform="translate(98.0572,488.8496)">
		<circle class="st13" cx="369.62" cy="-183.56" r="0.58"/>
	</g>
	<g transform="translate(98.0717,487.8806)">
		<circle class="st13" cx="369.61" cy="-183.15" r="0.58"/>
	</g>
	<g transform="translate(98.0863,486.9442)">
		<circle class="st13" cx="369.6" cy="-182.76" r="0.58"/>
	</g>
	<g transform="translate(98.1236,484.6811)">
		<circle class="st13" cx="369.59" cy="-181.8" r="0.58"/>
	</g>
	<g transform="translate(98.161,482.6116)">
		<circle class="st13" cx="369.57" cy="-180.93" r="0.58"/>
	</g>
	<g transform="translate(98.1983,480.7209)">
		<circle class="st13" cx="369.56" cy="-180.14" r="0.58"/>
	</g>
	<g transform="translate(98.2357,478.9951)">
		<circle class="st13" cx="369.54" cy="-179.41" r="0.58"/>
	</g>
	<g transform="translate(98.2731,477.4219)">
		<circle class="st13" cx="369.53" cy="-178.75" r="0.58"/>
	</g>
	<g transform="translate(98.3587,474.3301)">
		<circle class="st13" cx="369.49" cy="-177.44" r="0.58"/>
	</g>
	<g transform="translate(98.4443,471.857)">
		<circle class="st13" cx="369.45" cy="-176.4" r="0.58"/>
	</g>
	<g transform="translate(98.5299,469.9004)">
		<circle class="st13" cx="369.42" cy="-175.58" r="0.58"/>
	</g>
	<g transform="translate(98.6156,468.3742)">
		<circle class="st13" cx="369.38" cy="-174.93" r="0.58"/>
	</g>
	<g transform="translate(98.7012,467.2065)">
		<circle class="st13" cx="369.35" cy="-174.44" r="0.58"/>
	</g>
	<g transform="translate(98.7868,466.3369)">
		<circle class="st13" cx="369.31" cy="-174.07" r="0.58"/>
	</g>
	<g transform="translate(98.9458,465.3438)">
		<circle class="st13" cx="369.24" cy="-173.66" r="0.58"/>
	</g>
	<g transform="translate(99.1049,464.9549)">
		<circle class="st13" cx="369.18" cy="-173.49" r="0.58"/>
	</g>
	<g transform="translate(99.2639,464.9887)">
		<circle class="st13" cx="369.11" cy="-173.51" r="0.58"/>
	</g>
	<g transform="translate(99.4229,465.3126)">
		<circle class="st13" cx="369.04" cy="-173.64" r="0.58"/>
	</g>
	<g transform="translate(99.5819,465.8298)">
		<circle class="st13" cx="368.97" cy="-173.86" r="0.58"/>
	</g>
	<g transform="translate(99.741,466.4707)">
		<circle class="st13" cx="368.91" cy="-174.13" r="0.58"/>
	</g>
	<g transform="translate(99.9274,467.3141)">
		<circle class="st13" cx="368.83" cy="-174.49" r="0.58"/>
	</g>
	<g transform="translate(100.1139,468.2061)">
		<circle class="st13" cx="368.75" cy="-174.86" r="0.58"/>
	</g>
	<g transform="translate(100.3003,469.1107)">
		<circle class="st13" cx="368.67" cy="-175.24" r="0.58"/>
	</g>
	<g transform="translate(100.4868,470.0035)">
		<circle class="st13" cx="368.59" cy="-175.62" r="0.58"/>
	</g>
	<g transform="translate(100.6733,470.8692)">
		<circle class="st13" cx="368.51" cy="-175.98" r="0.58"/>
	</g>
	<g transform="translate(100.8597,471.6985)">
		<circle class="st13" cx="368.44" cy="-176.33" r="0.58"/>
	</g>
	<g transform="translate(101.1162,472.7703)">
		<circle class="st13" cx="368.33" cy="-176.78" r="0.58"/>
	</g>
	<g transform="translate(101.3726,473.759)">
		<circle class="st13" cx="368.22" cy="-177.2" r="0.58"/>
	</g>
	<g transform="translate(101.6291,474.6648)">
		<circle class="st13" cx="368.11" cy="-177.58" r="0.58"/>
	</g>
	<g transform="translate(101.8855,475.4906)">
		<circle class="st13" cx="368" cy="-177.93" r="0.58"/>
	</g>
	<g transform="translate(102.1419,476.2409)">
		<circle class="st13" cx="367.9" cy="-178.25" r="0.58"/>
	</g>
	<g transform="translate(102.3984,476.9214)">
		<circle class="st13" cx="367.79" cy="-178.53" r="0.58"/>
	</g>
	<g transform="translate(102.8582,477.9844)">
		<circle class="st13" cx="367.59" cy="-178.98" r="0.58"/>
	</g>
	<g transform="translate(103.318,478.8723)">
		<circle class="st13" cx="367.4" cy="-179.36" r="0.58"/>
	</g>
	<g transform="translate(103.7779,479.612)">
		<circle class="st13" cx="367.21" cy="-179.67" r="0.58"/>
	</g>
	<g transform="translate(104.2377,480.2271)">
		<circle class="st13" cx="367.01" cy="-179.93" r="0.58"/>
	</g>
	<g transform="translate(104.6975,480.7384)">
		<circle class="st13" cx="366.82" cy="-180.14" r="0.58"/>
	</g>
	<g transform="translate(105.1573,481.1634)">
		<circle class="st13" cx="366.63" cy="-180.32" r="0.58"/>
	</g>
	<g transform="translate(105.6172,481.5161)">
		<circle class="st13" cx="366.43" cy="-180.47" r="0.58"/>
	</g>
	<g transform="translate(106.56,482.0611)">
		<circle class="st13" cx="366.03" cy="-180.7" r="0.58"/>
	</g>
	<g transform="translate(107.5027,482.4279)">
		<circle class="st13" cx="365.64" cy="-180.85" r="0.58"/>
	</g>
	<g transform="translate(108.4455,482.6722)">
		<circle class="st13" cx="365.24" cy="-180.96" r="0.58"/>
	</g>
	<g transform="translate(109.3883,482.8328)">
		<circle class="st13" cx="364.84" cy="-181.03" r="0.58"/>
	</g>
	<g transform="translate(110.3311,482.9352)">
		<circle class="st13" cx="364.44" cy="-181.07" r="0.58"/>
	</g>
	<g transform="translate(111.2739,482.9964)">
		<circle class="st13" cx="364.05" cy="-181.09" r="0.58"/>
	</g>
	<g transform="translate(112.2167,483.0293)">
		<circle class="st13" cx="363.65" cy="-181.11" r="0.58"/>
	</g>
	<g transform="translate(113.796,483.0423)">
		<circle class="st13" cx="362.98" cy="-181.11" r="0.58"/>
	</g>
	<g transform="translate(115.3753,483.0262)">
		<circle class="st13" cx="362.32" cy="-181.11" r="0.58"/>
	</g>
	<g transform="translate(116.9546,482.9946)">
		<circle class="st13" cx="361.65" cy="-181.09" r="0.58"/>
	</g>
	<g transform="translate(118.5339,482.9542)">
		<circle class="st13" cx="360.99" cy="-181.08" r="0.58"/>
	</g>
	<g transform="translate(120.1132,482.9082)">
		<circle class="st13" cx="360.32" cy="-181.06" r="0.58"/>
	</g>
	<g transform="translate(123.3047,482.8058)">
		<circle class="st13" cx="358.98" cy="-181.01" r="0.58"/>
	</g>
	<g transform="translate(126.4961,482.6985)">
		<circle class="st13" cx="357.63" cy="-180.97" r="0.58"/>
	</g>
	<g transform="translate(129.6876,482.5889)">
		<circle class="st13" cx="356.29" cy="-180.92" r="0.58"/>
	</g>
	<g transform="translate(132.8791,482.477)">
		<circle class="st13" cx="354.94" cy="-180.88" r="0.58"/>
	</g>
	<g transform="translate(136.0706,482.3623)">
		<circle class="st13" cx="353.6" cy="-180.83" r="0.58"/>
	</g>
	<g transform="translate(147.33,481.938)">
		<circle class="st13" cx="348.85" cy="-180.65" r="0.58"/>
	</g>
	<g transform="translate(158.5895,481.4817)">
		<circle class="st13" cx="344.11" cy="-180.46" r="0.58"/>
	</g>
	<g transform="translate(169.8489,480.9933)">
		<circle class="st13" cx="339.36" cy="-180.25" r="0.58"/>
	</g>
	<g transform="translate(181.1083,480.4684)">
		<circle class="st13" cx="334.62" cy="-180.03" r="0.58"/>
	</g>
	<g transform="translate(192.3678,479.9006)">
		<circle class="st13" cx="329.87" cy="-179.79" r="0.58"/>
	</g>
	<g transform="translate(219.6556,478.3245)">
		<circle class="st13" cx="318.37" cy="-179.13" r="0.58"/>
	</g>
	<g transform="translate(246.9434,476.4194)">
		<circle class="st13" cx="306.87" cy="-178.32" r="0.58"/>
	</g>
	<g transform="translate(274.2313,474.1187)">
		<circle class="st13" cx="295.37" cy="-177.35" r="0.58"/>
	</g>
	<g transform="translate(301.5191,471.2133)">
		<circle class="st13" cx="283.87" cy="-176.13" r="0.58"/>
	</g>
	<g transform="translate(324.8206,468.2629)">
		<circle class="st13" cx="274.05" cy="-174.89" r="0.58"/>
	</g>
	<g transform="translate(348.122,464.9287)">
		<circle class="st13" cx="264.23" cy="-173.48" r="0.58"/>
	</g>
	<g transform="translate(371.4235,461.3194)">
		<circle class="st13" cx="254.41" cy="-171.96" r="0.58"/>
	</g>
	<g transform="translate(387.896,458.7589)">
		<circle class="st13" cx="247.47" cy="-170.88" r="0.58"/>
	</g>
	<g transform="translate(404.3686,456.3952)">
		<circle class="st13" cx="240.53" cy="-169.88" r="0.58"/>
	</g>
	<g transform="translate(417.5154,454.7946)">
		<circle class="st13" cx="234.99" cy="-169.21" r="0.58"/>
	</g>
	<g transform="translate(430.6622,453.5963)">
		<circle class="st13" cx="229.45" cy="-168.7" r="0.58"/>
	</g>
	<g transform="translate(443.8091,452.9047)">
		<circle class="st13" cx="223.91" cy="-168.41" r="0.58"/>
	</g>
	<g transform="translate(454.4232,452.7649)">
		<circle class="st13" cx="219.44" cy="-168.35" r="0.58"/>
	</g>
	<g transform="translate(465.0374,453.0172)">
		<circle class="st13" cx="214.96" cy="-168.46" r="0.58"/>
	</g>
	<g transform="translate(475.6516,453.6455)">
		<circle class="st13" cx="210.49" cy="-168.73" r="0.58"/>
	</g>
	<g transform="translate(484.3458,454.4178)">
		<circle class="st13" cx="206.83" cy="-169.05" r="0.58"/>
	</g>
	<g transform="translate(493.04,455.3927)">
		<circle class="st13" cx="203.16" cy="-169.46" r="0.58"/>
	</g>
	<g transform="translate(501.7343,456.5395)">
		<circle class="st13" cx="199.5" cy="-169.94" r="0.58"/>
	</g>
	<g transform="translate(510.4285,457.8255)">
		<circle class="st13" cx="195.83" cy="-170.49" r="0.58"/>
	</g>
	<g transform="translate(523.4293,459.9378)">
		<circle class="st13" cx="190.36" cy="-171.38" r="0.58"/>
	</g>
	<g transform="translate(536.4302,462.1839)">
		<circle class="st13" cx="184.88" cy="-172.32" r="0.58"/>
	</g>
	<g transform="translate(549.4311,464.481)">
		<circle class="st13" cx="179.4" cy="-173.29" r="0.58"/>
	</g>
	<g transform="translate(562.432,466.761)">
		<circle class="st13" cx="173.92" cy="-174.25" r="0.58"/>
	</g>
	<g transform="translate(575.4329,468.9699)">
		<circle class="st13" cx="168.44" cy="-175.18" r="0.58"/>
	</g>
	<g transform="translate(589.3207,471.2124)">
		<circle class="st13" cx="162.59" cy="-176.13" r="0.58"/>
	</g>
	<g transform="translate(603.2086,473.3112)">
		<circle class="st13" cx="156.74" cy="-177.01" r="0.58"/>
	</g>
	<g transform="translate(617.0964,475.2557)">
		<circle class="st13" cx="150.88" cy="-177.83" r="0.58"/>
	</g>
	<g transform="translate(630.9843,477.0434)">
		<circle class="st13" cx="145.03" cy="-178.59" r="0.58"/>
	</g>
	<g transform="translate(644.8722,478.6759)">
		<circle class="st13" cx="139.18" cy="-179.27" r="0.58"/>
	</g>
	<g transform="translate(658.8433,480.1674)">
		<circle class="st13" cx="133.29" cy="-179.9" r="0.58"/>
	</g>
	<g transform="translate(672.8144,481.5168)">
		<circle class="st13" cx="127.4" cy="-180.47" r="0.58"/>
	</g>
	<g transform="translate(680.5,482.2023)">
		<circle class="st13" cx="124.16" cy="-180.76" r="0.58"/>
	</g>
	<g>
		<path class="st2" d="M800.03,79.15V51.09H693v28.06H800.03z"/>
	</g>
	<g transform="translate(524.5,58.75)">
		<text transform="matrix(1 0 0 1 189.9049 0.2959)" class="st10 st6 st14">Enzyme-Reagent Complex</text>
	</g>
	<g>
		<line class="st11" x1="695.31" y1="56.44" x2="712.67" y2="56.44"/>
	</g>
	<g transform="translate(524.5,73.75)">
		<text transform="matrix(1 0 0 1 189.9049 -6.0254)" class="st10 st6 st14">Reactive Enzyme</text>
	</g>
	<g>
		<line class="st12" x1="695.31" y1="65.12" x2="712.67" y2="65.12"/>
	</g>
	<g transform="translate(524.5,88.75)">
		<text transform="matrix(1 0 0 1 189.9049 -12.3467)" class="st10 st6 st14">Anergic Enzyme</text>
	</g>
	<g transform="translate(506.5,88.75)">
		<circle class="st13" cx="197.49" cy="-14.95" r="0.58"/>
	</g>
	<g>
		<path class="st15" d="M693,79.15V51.09h107.04v28.06H693z"/>
		<path class="st16" d="M689.24,182.72V82.62h110.51v100.09H689.24z"/>
	</g>
	<g transform="translate(486,119)">
		<text transform="matrix(1 0 0 1 206.1295 -27.6982)" class="st10 st6 st14">Parameters:</text>
	</g>
	<g transform="translate(486,134)">
		<text transform="matrix(1 0 0 1 206.1295 -34.0195)" class="st10 st6 st14">        k</text>
	</g>
	<g transform="translate(519,140)">
		<text transform="matrix(1 0 0 1 192.2233 -36.5479)" class="st10 st6 st17">o</text>
	</g>
	<g transform="translate(525,140)">
		<text transform="matrix(1 0 0 1 189.694 -36.5479)" class="st10 st6 st17">n</text>
	</g>
	<g transform="translate(531,134)">
		<text transform="matrix(1 0 0 1 187.1656 -34.0195)" class="st10 st6 st14"> = 5;   k</text>
	</g>
	<g transform="translate(572,140)">
		<text transform="matrix(1 0 0 1 169.8873 -36.5479)" class="st10 st6 st17">o</text>
	</g>
	<g transform="translate(578,140)">
		<text transform="matrix(1 0 0 1 167.359 -36.5479)" class="st10 st6 st17">f</text>
	</g>
	<g transform="translate(581,140)">
		<text transform="matrix(1 0 0 1 166.0944 -36.5479)" class="st10 st6 st17">f</text>
	</g>
	<g transform="translate(584,134)">
		<text transform="matrix(1 0 0 1 164.8307 -34.0195)" class="st10 st6 st14"> = 2;</text>
	</g>
	<g transform="translate(486,170)">
		<text transform="matrix(1 0 0 1 206.1295 -49.1904)" class="st10 st6 st14">        k</text>
	</g>
	<g transform="translate(519,176)">
		<text transform="matrix(1 0 0 1 192.2233 -51.7197)" class="st10 st6 st17">+</text>
	</g>
	<g transform="translate(525,170)">
		<text transform="matrix(1 0 0 1 189.694 -49.1904)" class="st10 st6 st14"> = 0.2;   k</text>
	</g>
	<g transform="translate(576,176)">
		<text transform="matrix(1 0 0 1 168.2018 -51.7197)" class="st10 st6 st17">-</text>
	</g>
	<g transform="translate(580,170)">
		<text transform="matrix(1 0 0 1 166.5162 -49.1904)" class="st10 st6 st14"> = 0.1;</text>
	</g>
	<g transform="translate(486,206)">
		<text transform="matrix(1 0 0 1 206.1295 -64.3623)" class="st10 st6 st14">        k</text>
	</g>
	<g transform="translate(519,212)">
		<text transform="matrix(1 0 0 1 192.2233 -66.8906)" class="st10 st6 st17">c</text>
	</g>
	<g transform="translate(525,212)">
		<text transform="matrix(1 0 0 1 189.694 -66.8906)" class="st10 st6 st17">a</text>
	</g>
	<g transform="translate(531,212)">
		<text transform="matrix(1 0 0 1 187.1656 -66.8906)" class="st10 st6 st17">t</text>
	</g>
	<g transform="translate(535,206)">
		<text transform="matrix(1 0 0 1 185.4801 -64.3623)" class="st10 st6 st14"> = 1;</text>
	</g>
	<g transform="translate(486,242)">
		<text transform="matrix(1 0 0 1 206.1295 -79.5332)" class="st10 st6 st14">        gama = 0.1;</text>
	</g>
	<g transform="translate(486,257)">
		<text transform="matrix(1 0 0 1 206.1295 -85.8545)" class="st10 st6 st14">With:</text>
	</g>
	<g transform="translate(486,272)">
		<text transform="matrix(1 0 0 1 206.1295 -92.1758)" class="st10 st6 st14">        C( A</text>
	</g>
	<g transform="translate(536,278)">
		<text transform="matrix(1 0 0 1 185.0582 -94.7041)" class="st10 st6 st17">0</text>
	</g>
	<g transform="translate(542,272)">
		<text transform="matrix(1 0 0 1 182.5299 -92.1758)" class="st10 st6 st14"> ) = 5;    C( S</text>
	</g>
	<g transform="translate(609,278)">
		<text transform="matrix(1 0 0 1 154.2946 -94.7041)" class="st10 st6 st17">0</text>
	</g>
	<g transform="translate(615,272)">
		<text transform="matrix(1 0 0 1 151.7662 -92.1758)" class="st10 st6 st14"> ) = 100;</text>
	</g>
</g>
<g>
	<g>
		<g>
			<defs>
				<rect id="SVGID_00000057839733344370168910000009594384232624622774_" x="5.48" y="19.92" width="423.65" height="325.6"/>
			</defs>
			<clipPath id="SVGID_00000137129344159197627570000018269425695745991340_">
				<use xlink:href="#SVGID_00000057839733344370168910000009594384232624622774_"  style="overflow:visible;"/>
			</clipPath>
			
				<rect x="5.48" y="19.92" style="clip-path:url(#SVGID_00000137129344159197627570000018269425695745991340_);fill:#FFFFFF;" width="423.65" height="325.6"/>
		</g>
	</g>
	<g>
		<rect x="5.48" y="19.92" class="st2" width="423.65" height="325.6"/>
		<path class="st2" d="M60.48,309.69H388.9V44.43H60.48V309.69z"/>
	</g>
	<g>
		<line class="st3" x1="60.48" y1="309.69" x2="60.48" y2="44.43"/>
		<line class="st3" x1="93.32" y1="309.69" x2="93.32" y2="44.43"/>
		<line class="st3" x1="126.16" y1="309.69" x2="126.16" y2="44.43"/>
		<line class="st3" x1="159.01" y1="309.69" x2="159.01" y2="44.43"/>
		<line class="st3" x1="191.85" y1="309.69" x2="191.85" y2="44.43"/>
		<line class="st3" x1="224.69" y1="309.69" x2="224.69" y2="44.43"/>
		<line class="st3" x1="257.53" y1="309.69" x2="257.53" y2="44.43"/>
		<line class="st3" x1="290.38" y1="309.69" x2="290.38" y2="44.43"/>
		<line class="st3" x1="323.22" y1="309.69" x2="323.22" y2="44.43"/>
		<line class="st3" x1="356.06" y1="309.69" x2="356.06" y2="44.43"/>
		<line class="st3" x1="388.9" y1="309.69" x2="388.9" y2="44.43"/>
		<line class="st3" x1="388.9" y1="309.69" x2="60.48" y2="309.69"/>
		<line class="st3" x1="388.9" y1="283.16" x2="60.48" y2="283.16"/>
		<line class="st3" x1="388.9" y1="256.64" x2="60.48" y2="256.64"/>
		<line class="st3" x1="388.9" y1="230.11" x2="60.48" y2="230.11"/>
		<line class="st3" x1="388.9" y1="203.59" x2="60.48" y2="203.59"/>
		<line class="st3" x1="388.9" y1="177.06" x2="60.48" y2="177.06"/>
		<line class="st3" x1="388.9" y1="150.53" x2="60.48" y2="150.53"/>
		<line class="st3" x1="388.9" y1="124.01" x2="60.48" y2="124.01"/>
		<line class="st3" x1="388.9" y1="97.48" x2="60.48" y2="97.48"/>
		<line class="st3" x1="388.9" y1="70.96" x2="60.48" y2="70.96"/>
		<line class="st3" x1="388.9" y1="44.43" x2="60.48" y2="44.43"/>
		<line class="st4" x1="60.48" y1="309.69" x2="388.9" y2="309.69"/>
		<line class="st4" x1="60.48" y1="44.43" x2="388.9" y2="44.43"/>
		<line class="st4" x1="60.48" y1="309.69" x2="60.48" y2="306.4"/>
		<line class="st4" x1="93.32" y1="309.69" x2="93.32" y2="306.4"/>
		<line class="st4" x1="126.16" y1="309.69" x2="126.16" y2="306.4"/>
		<line class="st4" x1="159.01" y1="309.69" x2="159.01" y2="306.4"/>
		<line class="st4" x1="191.85" y1="309.69" x2="191.85" y2="306.4"/>
		<line class="st4" x1="224.69" y1="309.69" x2="224.69" y2="306.4"/>
		<line class="st4" x1="257.53" y1="309.69" x2="257.53" y2="306.4"/>
		<line class="st4" x1="290.38" y1="309.69" x2="290.38" y2="306.4"/>
		<line class="st4" x1="323.22" y1="309.69" x2="323.22" y2="306.4"/>
		<line class="st4" x1="356.06" y1="309.69" x2="356.06" y2="306.4"/>
		<line class="st4" x1="388.9" y1="309.69" x2="388.9" y2="306.4"/>
		<line class="st4" x1="60.48" y1="44.43" x2="60.48" y2="47.72"/>
		<line class="st4" x1="93.32" y1="44.43" x2="93.32" y2="47.72"/>
		<line class="st4" x1="126.16" y1="44.43" x2="126.16" y2="47.72"/>
		<line class="st4" x1="159.01" y1="44.43" x2="159.01" y2="47.72"/>
		<line class="st4" x1="191.85" y1="44.43" x2="191.85" y2="47.72"/>
		<line class="st4" x1="224.69" y1="44.43" x2="224.69" y2="47.72"/>
		<line class="st4" x1="257.53" y1="44.43" x2="257.53" y2="47.72"/>
		<line class="st4" x1="290.38" y1="44.43" x2="290.38" y2="47.72"/>
		<line class="st4" x1="323.22" y1="44.43" x2="323.22" y2="47.72"/>
		<line class="st4" x1="356.06" y1="44.43" x2="356.06" y2="47.72"/>
		<line class="st4" x1="388.9" y1="44.43" x2="388.9" y2="47.72"/>
	</g>
	<g transform="translate(87.5,465)">
		<text transform="matrix(1 0 0 1 -28.9075 -146.5119)" class="st5 st6 st19">0</text>
	</g>
	<g transform="translate(139.75,465)">
		<text transform="matrix(1 0 0 1 -48.3147 -146.5119)" class="st5 st6 st19">5</text>
	</g>
	<g transform="translate(192,465)">
		<text transform="matrix(1 0 0 1 -69.6087 -146.5119)" class="st5 st6 st19">10</text>
	</g>
	<g transform="translate(244.25,465)">
		<text transform="matrix(1 0 0 1 -89.0149 -146.5119)" class="st5 st6 st19">15</text>
	</g>
	<g transform="translate(296.5,465)">
		<text transform="matrix(1 0 0 1 -108.4222 -146.5119)" class="st5 st6 st19">20</text>
	</g>
	<g transform="translate(348.75,465)">
		<text transform="matrix(1 0 0 1 -127.8304 -146.5119)" class="st5 st6 st19">25</text>
	</g>
	<g transform="translate(401,465)">
		<text transform="matrix(1 0 0 1 -147.2386 -146.5119)" class="st5 st6 st19">30</text>
	</g>
	<g transform="translate(453.25,465)">
		<text transform="matrix(1 0 0 1 -166.6458 -146.5119)" class="st5 st6 st19">35</text>
	</g>
	<g transform="translate(505.5,465)">
		<text transform="matrix(1 0 0 1 -186.054 -146.5119)" class="st5 st6 st19">40</text>
	</g>
	<g transform="translate(557.75,465)">
		<text transform="matrix(1 0 0 1 -205.4603 -146.5119)" class="st5 st6 st19">45</text>
	</g>
	<g transform="translate(610,465)">
		<text transform="matrix(1 0 0 1 -224.868 -146.5119)" class="st5 st6 st19">50</text>
	</g>
	<g transform="translate(348.7502,478.5)">
		<text transform="matrix(1 0 0 1 -147.9448 -150.2697)" class="st5 st8 st20">Time / t (unit)</text>
	</g>
	<g>
		<line class="st4" x1="60.48" y1="309.69" x2="60.48" y2="44.43"/>
		<line class="st4" x1="388.9" y1="309.69" x2="388.9" y2="44.43"/>
		<line class="st4" x1="60.48" y1="309.69" x2="63.76" y2="309.69"/>
		<line class="st4" x1="60.48" y1="283.16" x2="63.76" y2="283.16"/>
		<line class="st4" x1="60.48" y1="256.64" x2="63.76" y2="256.64"/>
		<line class="st4" x1="60.48" y1="230.11" x2="63.76" y2="230.11"/>
		<line class="st4" x1="60.48" y1="203.59" x2="63.76" y2="203.59"/>
		<line class="st4" x1="60.48" y1="177.06" x2="63.76" y2="177.06"/>
		<line class="st4" x1="60.48" y1="150.53" x2="63.76" y2="150.53"/>
		<line class="st4" x1="60.48" y1="124.01" x2="63.76" y2="124.01"/>
		<line class="st4" x1="60.48" y1="97.48" x2="63.76" y2="97.48"/>
		<line class="st4" x1="60.48" y1="70.96" x2="63.76" y2="70.96"/>
		<line class="st4" x1="60.48" y1="44.43" x2="63.76" y2="44.43"/>
		<line class="st4" x1="388.9" y1="309.69" x2="385.62" y2="309.69"/>
		<line class="st4" x1="388.9" y1="283.16" x2="385.62" y2="283.16"/>
		<line class="st4" x1="388.9" y1="256.64" x2="385.62" y2="256.64"/>
		<line class="st4" x1="388.9" y1="230.11" x2="385.62" y2="230.11"/>
		<line class="st4" x1="388.9" y1="203.59" x2="385.62" y2="203.59"/>
		<line class="st4" x1="388.9" y1="177.06" x2="385.62" y2="177.06"/>
		<line class="st4" x1="388.9" y1="150.53" x2="385.62" y2="150.53"/>
		<line class="st4" x1="388.9" y1="124.01" x2="385.62" y2="124.01"/>
		<line class="st4" x1="388.9" y1="97.48" x2="385.62" y2="97.48"/>
		<line class="st4" x1="388.9" y1="70.96" x2="385.62" y2="70.96"/>
		<line class="st4" x1="388.9" y1="44.43" x2="385.62" y2="44.43"/>
	</g>
	<g transform="translate(83.5,461)">
		<text transform="matrix(1 0 0 1 -29.3074 -149.1125)" class="st5 st6 st19">0</text>
	</g>
	<g transform="translate(83.5,418.8)">
		<text transform="matrix(1 0 0 1 -33.0789 -133.4379)" class="st5 st6 st19">10</text>
	</g>
	<g transform="translate(83.5,376.6)">
		<text transform="matrix(1 0 0 1 -33.0789 -117.7633)" class="st5 st6 st19">20</text>
	</g>
	<g transform="translate(83.5,334.4)">
		<text transform="matrix(1 0 0 1 -33.0789 -102.0887)" class="st5 st6 st19">30</text>
	</g>
	<g transform="translate(83.5,292.2)">
		<text transform="matrix(1 0 0 1 -33.0789 -86.4141)" class="st5 st6 st19">40</text>
	</g>
	<g transform="translate(83.5,250)">
		<text transform="matrix(1 0 0 1 -33.0789 -70.7394)" class="st5 st6 st19">50</text>
	</g>
	<g transform="translate(83.5,207.8)">
		<text transform="matrix(1 0 0 1 -33.0789 -55.0658)" class="st5 st6 st19">60</text>
	</g>
	<g transform="translate(83.5,165.6)">
		<text transform="matrix(1 0 0 1 -33.0789 -39.3902)" class="st5 st6 st19">70</text>
	</g>
	<g transform="translate(83.5,123.4)">
		<text transform="matrix(1 0 0 1 -33.0789 -23.7156)" class="st5 st6 st19">80</text>
	</g>
	<g transform="translate(83.5,81.2)">
		<text transform="matrix(1 0 0 1 -33.0789 -8.042)" class="st5 st6 st19">90</text>
	</g>
	<g transform="translate(83.5,39)">
		<text transform="matrix(1 0 0 1 -36.2215 7.6326)" class="st5 st6 st19">100</text>
	</g>
	<g transform="translate(63.5,249.9998) rotate(-90)">
		<text transform="matrix(1 0 0 1 4.7402 -19.9925)" class="st5 st8 st20">The number of Product or Reagent / #</text>
	</g>
	<g transform="translate(348.7503,37.25)">
		<text transform="matrix(1 0 0 1 -213.315 3.5691)" class="st10 st8 st21">Mimic of the Case of the Amplified System</text>
	</g>
	<g>
		<path class="st22" d="M60.48,309.69L60.48,309.69L60.48,309.69L60.48,309.69L60.48,309.69L60.48,309.69L60.48,309.69L60.48,309.69
			l0.02,0l0.01,0l0.01,0l0.01,0l0.01,0l0.02-0.01l0.02-0.01l0.02-0.01l0.02-0.01l0.02-0.01l0.05-0.04l0.05-0.05l0.05-0.05l0.05-0.06
			l0.05-0.06l0.05-0.06l0.09-0.13l0.09-0.14l0.09-0.14l0.09-0.15l0.09-0.15l0.09-0.15l0.11-0.18l0.11-0.18l0.11-0.18l0.11-0.19
			l0.11-0.19l0.11-0.19l0.14-0.26l0.14-0.26l0.14-0.26l0.14-0.26l0.14-0.26l0.14-0.26l0.26-0.47l0.26-0.47l0.26-0.47l0.26-0.47
			l0.26-0.48l0.26-0.48l0.26-0.48l0.53-0.98l0.53-0.98l0.53-0.98l0.53-0.98l0.53-0.98l0.53-0.98l0.53-0.98l0.89-1.63l0.89-1.63
			l0.89-1.63l0.89-1.62l0.89-1.62l1.8-3.27l1.8-3.26l1.8-3.25l1.8-3.24l1.8-3.22l6.35-11.28l6.35-11.13l6.35-10.97l6.35-10.81
			l6.35-10.63l15.39-24.96l15.39-23.71l15.39-22.25l15.39-20.54l13.14-15.93l13.14-14.24l13.14-12.35l9.29-7.51l9.29-6.45l7.41-4.39
			l7.41-3.73l7.41-3.11l5.98-2.1l5.98-1.77l5.98-1.48l4.9-1.02l4.9-0.87l4.9-0.74l4.9-0.62l7.33-0.76l7.33-0.59l7.33-0.46l7.33-0.36
			l7.33-0.29l7.83-0.24l7.83-0.19l7.83-0.15l7.83-0.12l7.83-0.1l7.88-0.08l7.88-0.07l4.33-0.03"/>
	</g>
	<g>
		<path class="st23" d="M60.48,44.43L60.48,44.43l0,0.01l0,0.01l0,0.05l0,0.05l0,0.05l0,0.05l0.01,0.4l0.01,0.31l0.01,0.3l0.01,0.29
			l0.01,0.28l0.02,0.69l0.02,0.64l0.02,0.6l0.02,0.56l0.02,0.52l0.05,1.07l0.05,0.91l0.05,0.79l0.05,0.68l0.05,0.59l0.05,0.51
			l0.09,0.79l0.09,0.63l0.09,0.52l0.09,0.43l0.09,0.37l0.09,0.32l0.11,0.33l0.11,0.3l0.11,0.27l0.11,0.26l0.11,0.24l0.11,0.23
			l0.14,0.31l0.14,0.3l0.14,0.3l0.14,0.29l0.14,0.29l0.14,0.28l0.26,0.51l0.26,0.5l0.26,0.49l0.26,0.49l0.26,0.49l0.26,0.49
			l0.26,0.48l0.53,0.99l0.53,0.98l0.53,0.98l0.53,0.97l0.53,0.97l0.53,0.97l0.53,0.97l0.89,1.61l0.89,1.61l0.89,1.61l0.89,1.61
			l0.89,1.6l1.8,3.23l1.8,3.22l1.8,3.21l1.8,3.19l1.8,3.18l6.35,11.13l6.35,10.97l6.35,10.8l6.35,10.63l6.35,10.44l15.39,24.46
			l15.39,23.13l15.39,21.58l15.39,19.74l13.14,15.15l13.14,13.35l13.14,11.36l9.29,6.77l9.29,5.69l7.41,3.79l7.41,3.16l7.41,2.59
			l5.98,1.72l5.98,1.43l5.98,1.18l4.9,0.8l4.9,0.68l4.9,0.57l4.9,0.49l7.33,0.59l7.33,0.46l7.33,0.36l7.33,0.28l7.33,0.23l7.83,0.19
			l7.83,0.15l7.83,0.12l7.83,0.1l7.83,0.08l7.88,0.07l7.88,0.06l4.33,0.03"/>
	</g>
	<g>
		<path class="st2" d="M365.02,93.15V72.09h-54.06v21.06H365.02z"/>
	</g>
	<g transform="translate(523,92.25)">
		<text transform="matrix(1 0 0 1 -188.7825 -11.5168)" class="st10 st6 st20">Product</text>
	</g>
	<g>
		<line class="st22" x1="313.47" y1="77.9" x2="332.33" y2="77.9"/>
	</g>
	<g transform="translate(523,107.25)">
		<text transform="matrix(1 0 0 1 -188.7825 -17.0891)" class="st10 st6 st20">Reagent</text>
	</g>
	<g>
		<line class="st23" x1="313.47" y1="87.33" x2="332.33" y2="87.33"/>
	</g>
	<g>
		<path class="st15" d="M310.96,93.15V72.09h54.06v21.06H310.96z"/>
		<path class="st16" d="M239.93,212.89V101.96h125.71v110.93H239.93z"/>
	</g>
	<g transform="translate(378,146)">
		<text transform="matrix(1 0 0 1 -134.9241 -34.3098)" class="st10 st6 st20">Parameters:</text>
	</g>
	<g transform="translate(378,161)">
		<text transform="matrix(1 0 0 1 -134.9241 -39.8811)" class="st10 st6 st20">        k</text>
	</g>
	<g transform="translate(411,167)">
		<text transform="matrix(1 0 0 1 -147.181 -42.1115)" class="st10 st6 st24">o</text>
	</g>
	<g transform="translate(417,167)">
		<text transform="matrix(1 0 0 1 -149.4104 -42.1115)" class="st10 st6 st24">n</text>
	</g>
	<g transform="translate(423,161)">
		<text transform="matrix(1 0 0 1 -151.639 -39.8811)" class="st10 st6 st20"> = 5;   k</text>
	</g>
	<g transform="translate(464,167)">
		<text transform="matrix(1 0 0 1 -166.8675 -42.1115)" class="st10 st6 st24">o</text>
	</g>
	<g transform="translate(470,167)">
		<text transform="matrix(1 0 0 1 -169.096 -42.1115)" class="st10 st6 st24">f</text>
	</g>
	<g transform="translate(473,167)">
		<text transform="matrix(1 0 0 1 -170.2103 -42.1115)" class="st10 st6 st24">f</text>
	</g>
	<g transform="translate(476,161)">
		<text transform="matrix(1 0 0 1 -171.3245 -39.8811)" class="st10 st6 st20"> = 2;</text>
	</g>
	<g transform="translate(378,197)">
		<text transform="matrix(1 0 0 1 -134.9241 -53.2531)" class="st10 st6 st20">        k</text>
	</g>
	<g transform="translate(411,203)">
		<text transform="matrix(1 0 0 1 -147.181 -55.4816)" class="st10 st6 st24">+</text>
	</g>
	<g transform="translate(417,197)">
		<text transform="matrix(1 0 0 1 -149.4104 -53.2531)" class="st10 st6 st20"> = 0.2;   k</text>
	</g>
	<g transform="translate(468,203)">
		<text transform="matrix(1 0 0 1 -168.3528 -55.4816)" class="st10 st6 st24">-</text>
	</g>
	<g transform="translate(472,197)">
		<text transform="matrix(1 0 0 1 -169.8392 -53.2531)" class="st10 st6 st20"> = 0.1;</text>
	</g>
	<g transform="translate(378,233)">
		<text transform="matrix(1 0 0 1 -134.9241 -66.6252)" class="st10 st6 st20">        k</text>
	</g>
	<g transform="translate(411,239)">
		<text transform="matrix(1 0 0 1 -147.181 -68.8537)" class="st10 st6 st24">c</text>
	</g>
	<g transform="translate(417,239)">
		<text transform="matrix(1 0 0 1 -149.4104 -68.8537)" class="st10 st6 st24">a</text>
	</g>
	<g transform="translate(423,239)">
		<text transform="matrix(1 0 0 1 -151.639 -68.8537)" class="st10 st6 st24">t</text>
	</g>
	<g transform="translate(427,233)">
		<text transform="matrix(1 0 0 1 -153.1243 -66.6252)" class="st10 st6 st20"> = 1;</text>
	</g>
	<g transform="translate(378,269)">
		<text transform="matrix(1 0 0 1 -134.9241 -79.9973)" class="st10 st6 st20">        gama = 0.1;</text>
	</g>
	<g transform="translate(378,284)">
		<text transform="matrix(1 0 0 1 -134.9241 -85.5686)" class="st10 st6 st20">With:</text>
	</g>
	<g transform="translate(378,299)">
		<text transform="matrix(1 0 0 1 -134.9241 -91.1398)" class="st10 st6 st20">        C( A</text>
	</g>
	<g transform="translate(428,305)">
		<text transform="matrix(1 0 0 1 -153.4954 -93.3684)" class="st10 st6 st24">0</text>
	</g>
	<g transform="translate(434,299)">
		<text transform="matrix(1 0 0 1 -155.7239 -91.1398)" class="st10 st6 st20"> ) = 5;    C( S</text>
	</g>
	<g transform="translate(501,305)">
		<text transform="matrix(1 0 0 1 -180.6106 -93.3684)" class="st10 st6 st24">0</text>
	</g>
	<g transform="translate(507,299)">
		<text transform="matrix(1 0 0 1 -182.8392 -91.1398)" class="st10 st6 st20"> ) = 100;</text>
	</g>
</g>
<text transform="matrix(1 0 0 1 21.7302 34.3865)"><tspan x="0" y="0" class="st25 st26 st27">a</tspan><tspan x="8.68" y="0" class="st28 st26 st27">.</tspan></text>
<text transform="matrix(1 0 0 1 432.8626 34.5842)" class="st25 st26 st27">b.</text>
</svg>
