<?xml version="1.0" encoding="utf-8"?>
<!-- Generator: Adobe Illustrator 28.2.0, SVG Export Plug-In . SVG Version: 6.00 Build 0)  -->
<svg version="1.1" id="Layer_1" xmlns="http://www.w3.org/2000/svg" xmlns:xlink="http://www.w3.org/1999/xlink" x="0px" y="0px"
	 viewBox="0 0 800.78 345.87" style="enable-background:new 0 0 800.78 345.87;" xml:space="preserve">
<style type="text/css">
	.st0{fill:#FFFFFF;stroke:#000000;stroke-width:0.25;stroke-miterlimit:10;}
	.st1{clip-path:url(#SVGID_00000129927426159252044900000005639568007375530129_);fill:#FFFFFF;}
	.st2{fill:#FFFFFF;}
	.st3{fill:none;stroke:#272626;stroke-width:0.5;stroke-linejoin:round;stroke-miterlimit:10;stroke-opacity:0.149;}
	.st4{fill:none;stroke:#272626;stroke-width:0.5;stroke-linecap:square;stroke-linejoin:round;stroke-miterlimit:10;}
	.st5{fill:#272626;}
	.st6{font-family:'Helvetica';}
	.st7{font-size:7.696px;}
	.st8{font-family:'HelveticaNeue-Bold';}
	.st9{font-size:8.3373px;}
	.st10{fill:#010101;}
	.st11{font-size:8.9786px;}
	.st12{fill:none;stroke:#010101;stroke-width:1.2;stroke-linejoin:round;stroke-miterlimit:10;}
	.st13{fill:none;stroke:#3A53A4;stroke-linejoin:bevel;stroke-miterlimit:1;stroke-dasharray:10,6;}
	.st14{fill:#3A53A4;}
	.st15{fill:none;stroke:#272626;stroke-width:0.5;stroke-miterlimit:10;}
	.st16{fill:none;stroke:#010101;stroke-width:0.5;stroke-miterlimit:10;}
	.st17{font-size:6.1568px;}
	.st18{clip-path:url(#SVGID_00000158008487310206624150000005271985284180124843_);fill:#FFFFFF;}
	.st19{font-size:5.6095px;}
	.st20{font-size:7.2924px;}
	.st21{font-size:7.8533px;}
	.st22{fill:none;stroke:#ED2224;stroke-width:1.2;stroke-linejoin:round;stroke-miterlimit:10;}
	.st23{fill:none;stroke:#010101;stroke-width:1.2;stroke-linejoin:bevel;stroke-miterlimit:1;stroke-dasharray:10,6;}
	.st24{font-size:6.7314px;}
	.st25{font-size:5.3851px;}
	.st26{stroke:#000000;stroke-width:0.25;stroke-miterlimit:10;}
	.st27{font-family:'MyriadPro-Regular';}
	.st28{font-size:18px;}
</style>
<rect class="st0" width="800.78" height="345.87"/>
<g>
	<g>
		<g>
			<defs>
				<rect id="SVGID_1_" x="362.75" y="3.54" width="438.03" height="330.28"/>
			</defs>
			<clipPath id="SVGID_00000054945869780300061690000014706173542169945271_">
				<use xlink:href="#SVGID_1_"  style="overflow:visible;"/>
			</clipPath>
			
				<rect x="362.75" y="3.54" style="clip-path:url(#SVGID_00000054945869780300061690000014706173542169945271_);fill:#FFFFFF;" width="438.03" height="330.28"/>
		</g>
	</g>
	<g>
		<rect x="362.75" y="3.54" class="st2" width="438.03" height="330.28"/>
		<path class="st2" d="M419.83,297.59h339.26V28.23H419.83V297.59z"/>
	</g>
	<g>
		<line class="st3" x1="419.83" y1="297.59" x2="419.83" y2="28.23"/>
		<line class="st3" x1="462.23" y1="297.59" x2="462.23" y2="28.23"/>
		<line class="st3" x1="504.64" y1="297.59" x2="504.64" y2="28.23"/>
		<line class="st3" x1="547.05" y1="297.59" x2="547.05" y2="28.23"/>
		<line class="st3" x1="589.46" y1="297.59" x2="589.46" y2="28.23"/>
		<line class="st3" x1="631.87" y1="297.59" x2="631.87" y2="28.23"/>
		<line class="st3" x1="674.27" y1="297.59" x2="674.27" y2="28.23"/>
		<line class="st3" x1="716.68" y1="297.59" x2="716.68" y2="28.23"/>
		<line class="st3" x1="759.09" y1="297.59" x2="759.09" y2="28.23"/>
		<line class="st3" x1="759.09" y1="297.59" x2="419.83" y2="297.59"/>
		<line class="st3" x1="759.09" y1="270.66" x2="419.83" y2="270.66"/>
		<line class="st3" x1="759.09" y1="243.72" x2="419.83" y2="243.72"/>
		<line class="st3" x1="759.09" y1="216.79" x2="419.83" y2="216.79"/>
		<line class="st3" x1="759.09" y1="189.85" x2="419.83" y2="189.85"/>
		<line class="st3" x1="759.09" y1="162.91" x2="419.83" y2="162.91"/>
		<line class="st3" x1="759.09" y1="135.98" x2="419.83" y2="135.98"/>
		<line class="st3" x1="759.09" y1="109.04" x2="419.83" y2="109.04"/>
		<line class="st3" x1="759.09" y1="82.11" x2="419.83" y2="82.11"/>
		<line class="st3" x1="759.09" y1="55.17" x2="419.83" y2="55.17"/>
		<line class="st3" x1="759.09" y1="28.23" x2="419.83" y2="28.23"/>
		<line class="st4" x1="419.83" y1="297.59" x2="759.09" y2="297.59"/>
		<line class="st4" x1="419.83" y1="28.23" x2="759.09" y2="28.23"/>
		<line class="st4" x1="419.83" y1="297.59" x2="419.83" y2="294.2"/>
		<line class="st4" x1="462.23" y1="297.59" x2="462.23" y2="294.2"/>
		<line class="st4" x1="504.64" y1="297.59" x2="504.64" y2="294.2"/>
		<line class="st4" x1="547.05" y1="297.59" x2="547.05" y2="294.2"/>
		<line class="st4" x1="589.46" y1="297.59" x2="589.46" y2="294.2"/>
		<line class="st4" x1="631.87" y1="297.59" x2="631.87" y2="294.2"/>
		<line class="st4" x1="674.27" y1="297.59" x2="674.27" y2="294.2"/>
		<line class="st4" x1="716.68" y1="297.59" x2="716.68" y2="294.2"/>
		<line class="st4" x1="759.09" y1="297.59" x2="759.09" y2="294.2"/>
		<line class="st4" x1="419.83" y1="28.23" x2="419.83" y2="31.63"/>
		<line class="st4" x1="462.23" y1="28.23" x2="462.23" y2="31.63"/>
		<line class="st4" x1="504.64" y1="28.23" x2="504.64" y2="31.63"/>
		<line class="st4" x1="547.05" y1="28.23" x2="547.05" y2="31.63"/>
		<line class="st4" x1="589.46" y1="28.23" x2="589.46" y2="31.63"/>
		<line class="st4" x1="631.87" y1="28.23" x2="631.87" y2="31.63"/>
		<line class="st4" x1="674.27" y1="28.23" x2="674.27" y2="31.63"/>
		<line class="st4" x1="716.68" y1="28.23" x2="716.68" y2="31.63"/>
		<line class="st4" x1="759.09" y1="28.23" x2="759.09" y2="31.63"/>
	</g>
	<g transform="translate(89,462.9)">
		<text transform="matrix(1 0 0 1 328.5811 -154.7902)" class="st5 st6 st7">0</text>
	</g>
	<g transform="translate(155.125,462.9)">
		<text transform="matrix(1 0 0 1 304.8643 -154.7902)" class="st5 st6 st7">5</text>
	</g>
	<g transform="translate(221.25,462.9)">
		<text transform="matrix(1 0 0 1 278.9023 -154.7902)" class="st5 st6 st7">10</text>
	</g>
	<g transform="translate(287.375,462.9)">
		<text transform="matrix(1 0 0 1 255.1855 -154.7902)" class="st5 st6 st7">15</text>
	</g>
	<g transform="translate(353.5,462.9)">
		<text transform="matrix(1 0 0 1 231.4678 -154.7902)" class="st5 st6 st7">20</text>
	</g>
	<g transform="translate(419.625,462.9)">
		<text transform="matrix(1 0 0 1 207.751 -154.7902)" class="st5 st6 st7">25</text>
	</g>
	<g transform="translate(485.75,462.9)">
		<text transform="matrix(1 0 0 1 184.0342 -154.7902)" class="st5 st6 st7">30</text>
	</g>
	<g transform="translate(551.875,462.9)">
		<text transform="matrix(1 0 0 1 160.3164 -154.7902)" class="st5 st6 st7">35</text>
	</g>
	<g transform="translate(618,462.9)">
		<text transform="matrix(1 0 0 1 136.5996 -154.7902)" class="st5 st6 st7">40</text>
	</g>
	<g transform="translate(353.5002,478.4)">
		<text transform="matrix(1 0 0 1 209.6629 -159.7072)" class="st5 st8 st9">Time / t (unit)</text>
	</g>
	<g>
		<line class="st4" x1="419.83" y1="297.59" x2="419.83" y2="28.23"/>
		<line class="st4" x1="759.09" y1="297.59" x2="759.09" y2="28.23"/>
		<line class="st4" x1="419.83" y1="297.59" x2="423.22" y2="297.59"/>
		<line class="st4" x1="419.83" y1="270.66" x2="423.22" y2="270.66"/>
		<line class="st4" x1="419.83" y1="243.72" x2="423.22" y2="243.72"/>
		<line class="st4" x1="419.83" y1="216.79" x2="423.22" y2="216.79"/>
		<line class="st4" x1="419.83" y1="189.85" x2="423.22" y2="189.85"/>
		<line class="st4" x1="419.83" y1="162.91" x2="423.22" y2="162.91"/>
		<line class="st4" x1="419.83" y1="135.98" x2="423.22" y2="135.98"/>
		<line class="st4" x1="419.83" y1="109.04" x2="423.22" y2="109.04"/>
		<line class="st4" x1="419.83" y1="82.11" x2="423.22" y2="82.11"/>
		<line class="st4" x1="419.83" y1="55.17" x2="423.22" y2="55.17"/>
		<line class="st4" x1="419.83" y1="28.23" x2="423.22" y2="28.23"/>
		<line class="st4" x1="759.09" y1="297.59" x2="755.7" y2="297.59"/>
		<line class="st4" x1="759.09" y1="270.66" x2="755.7" y2="270.66"/>
		<line class="st4" x1="759.09" y1="243.72" x2="755.7" y2="243.72"/>
		<line class="st4" x1="759.09" y1="216.79" x2="755.7" y2="216.79"/>
		<line class="st4" x1="759.09" y1="189.85" x2="755.7" y2="189.85"/>
		<line class="st4" x1="759.09" y1="162.91" x2="755.7" y2="162.91"/>
		<line class="st4" x1="759.09" y1="135.98" x2="755.7" y2="135.98"/>
		<line class="st4" x1="759.09" y1="109.04" x2="755.7" y2="109.04"/>
		<line class="st4" x1="759.09" y1="82.11" x2="755.7" y2="82.11"/>
		<line class="st4" x1="759.09" y1="55.17" x2="755.7" y2="55.17"/>
		<line class="st4" x1="759.09" y1="28.23" x2="755.7" y2="28.23"/>
	</g>
	<g transform="translate(84.6,458.5)">
		<text transform="matrix(1 0 0 1 327.9146 -158.0211)" class="st5 st6 st7">0</text>
	</g>
	<g transform="translate(84.6,416.5)">
		<text transform="matrix(1 0 0 1 321.5006 -142.9566)" class="st5 st6 st7">0.5</text>
	</g>
	<g transform="translate(84.6,374.5)">
		<text transform="matrix(1 0 0 1 327.9146 -127.8931)" class="st5 st6 st7">1</text>
	</g>
	<g transform="translate(84.6,332.5)">
		<text transform="matrix(1 0 0 1 321.5006 -112.8287)" class="st5 st6 st7">1.5</text>
	</g>
	<g transform="translate(84.6,290.5)">
		<text transform="matrix(1 0 0 1 327.9146 -97.7652)" class="st5 st6 st7">2</text>
	</g>
	<g transform="translate(84.6,248.5)">
		<text transform="matrix(1 0 0 1 321.5006 -82.7003)" class="st5 st6 st7">2.5</text>
	</g>
	<g transform="translate(84.6,206.5)">
		<text transform="matrix(1 0 0 1 327.9146 -67.6358)" class="st5 st6 st7">3</text>
	</g>
	<g transform="translate(84.6,164.5)">
		<text transform="matrix(1 0 0 1 321.5006 -52.5723)" class="st5 st6 st7">3.5</text>
	</g>
	<g transform="translate(84.6,122.5)">
		<text transform="matrix(1 0 0 1 327.9146 -37.5079)" class="st5 st6 st7">4</text>
	</g>
	<g transform="translate(84.6,80.5)">
		<text transform="matrix(1 0 0 1 321.5006 -22.4444)" class="st5 st6 st7">4.5</text>
	</g>
	<g transform="translate(84.6,38.5)">
		<text transform="matrix(1 0 0 1 327.9146 -7.38)" class="st5 st6 st7">5</text>
	</g>
	<g transform="translate(64.6,248.4998) rotate(-90)">
		<text transform="matrix(1 0 0 1 33.3178 337.6539)" class="st5 st8 st9">The number of Enzyme / #</text>
	</g>
	<g transform="translate(353.5003,36.75)">
		<text transform="matrix(1 0 0 1 144.8893 -12.2032)" class="st10 st8 st11">Mimic of the Case of the Amplified System</text>
	</g>
	<g>
		<path class="st12" d="M419.83,297.59l0-0.12l0-0.12l0-0.12l0-1.03l0-1.02l0-1.02l0-1.01l0.01-8.08l0.01-6.21l0.01-6.03l0.01-5.85
			l0.01-5.67l0.03-13.76l0.03-12.74l0.03-11.81l0.03-10.94l0.03-10.15l0.06-20.54l0.06-17.32l0.06-14.63l0.06-12.37l0.06-10.48
			l0.06-8.89l0.11-13.1l0.11-9.74l0.11-7.28l0.11-5.47l0.11-4.14l0.11-3.16l0.13-2.79l0.13-2.09l0.13-1.58l0.13-1.22l0.13-0.96
			l0.13-0.77l0.18-0.82l0.18-0.64l0.18-0.5l0.18-0.4l0.18-0.32l0.18-0.26l0.31-0.33l0.31-0.22l0.31-0.12l0.31-0.05l0.31,0.01
			l0.31,0.06l0.7,0.29l0.7,0.45l0.7,0.56l0.7,0.63l0.7,0.68l0.7,0.72l1.13,1.19l1.13,1.23l1.13,1.25l1.13,1.26l1.13,1.26l1.13,1.26
			l2.13,2.38l2.13,2.38l2.13,2.38l2.13,2.38l2.13,2.37l2.13,2.37l3.78,4.21l3.78,4.21l3.78,4.19l3.78,4.17l3.78,4.15l7.14,7.8
			l7.14,7.73l7.14,7.62l7.14,7.52l11.26,11.6l11.26,11.25l11.26,10.85l11.26,10.4l24.06,20.52l24.06,18.06l18.08,11.89l18.08,10.44
			l18.08,9.06l18.08,7.76l24.16,8.56l24.16,6.75l24.16,5.25l25.08,4.19"/>
	</g>
	<g>
		<path class="st13" d="M419.83,28.23l0,0.14l0,0.14l0,0.14l0,1.15l0,1.15l0,1.14l0,1.14l0.01,9.09l0.01,6.98l0.01,6.77l0.01,6.57
			l0.01,6.37l0.03,15.45l0.03,14.3l0.03,13.24l0.03,12.26l0.03,11.35l0.06,22.93l0.06,19.28l0.06,16.23l0.06,13.67l0.06,11.52
			l0.06,9.72l0.11,14.18l0.11,10.4l0.11,7.63l0.11,5.6l0.11,4.13l0.11,3.05l0.13,2.58l0.13,1.83l0.13,1.3l0.13,0.94l0.13,0.68
			l0.13,0.5l0.18,0.49l0.18,0.34l0.18,0.24l0.18,0.17l0.18,0.14l0.18,0.11l0.31,0.15l0.31,0.11l0.31,0.09l0.31,0.07l0.31,0.06
			l0.31,0.05l0.7,0.09l0.7,0.06l0.7,0.03l0.7,0.02l0.7,0.02l0.7,0.01l1.13,0.01l1.13,0h1.13l1.13,0l1.13,0l1.13,0l2.13,0l2.13,0
			l2.13,0l2.13,0l2.13,0l2.13,0l3.78,0.01l3.78,0.01l3.78,0.02l3.78,0.03l3.78,0.03l7.14,0.07l7.14,0.09l7.14,0.12l7.14,0.14
			l11.26,0.27l11.26,0.32l11.26,0.38l11.26,0.43l24.06,1.06l24.06,1.21l18.08,0.97l18.08,0.97l18.08,0.94l18.08,0.89l24.16,1.07
			l24.16,0.93l24.16,0.77l25.08,0.65"/>
		<circle class="st14" cx="419.83" cy="297.59" r="0.64"/>
	</g>
	<g transform="translate(89.0003,458.4808)">
		<circle class="st14" cx="330.83" cy="-160.9" r="0.64"/>
	</g>
	<g transform="translate(89.0006,458.4616)">
		<circle class="st14" cx="330.83" cy="-160.89" r="0.64"/>
	</g>
	<g transform="translate(89.0009,458.4424)">
		<circle class="st14" cx="330.83" cy="-160.89" r="0.64"/>
	</g>
	<g transform="translate(89.0034,458.2826)">
		<circle class="st14" cx="330.83" cy="-160.83" r="0.64"/>
	</g>
	<g transform="translate(89.006,458.1236)">
		<circle class="st14" cx="330.82" cy="-160.77" r="0.64"/>
	</g>
	<g transform="translate(89.0085,457.9654)">
		<circle class="st14" cx="330.82" cy="-160.71" r="0.64"/>
	</g>
	<g transform="translate(89.011,457.8081)">
		<circle class="st14" cx="330.82" cy="-160.66" r="0.64"/>
	</g>
	<g transform="translate(89.0317,456.5538)">
		<circle class="st14" cx="330.82" cy="-160.21" r="0.64"/>
	</g>
	<g transform="translate(89.0481,455.5943)">
		<circle class="st14" cx="330.81" cy="-159.86" r="0.64"/>
	</g>
	<g transform="translate(89.0645,454.6672)">
		<circle class="st14" cx="330.8" cy="-159.53" r="0.64"/>
	</g>
	<g transform="translate(89.0809,453.7717)">
		<circle class="st14" cx="330.8" cy="-159.21" r="0.64"/>
	</g>
	<g transform="translate(89.0973,452.9067)">
		<circle class="st14" cx="330.79" cy="-158.9" r="0.64"/>
	</g>
	<g transform="translate(89.1393,450.8257)">
		<circle class="st14" cx="330.78" cy="-158.15" r="0.64"/>
	</g>
	<g transform="translate(89.1813,448.9237)">
		<circle class="st14" cx="330.76" cy="-157.47" r="0.64"/>
	</g>
	<g transform="translate(89.2233,447.1869)">
		<circle class="st14" cx="330.75" cy="-156.85" r="0.64"/>
	</g>
	<g transform="translate(89.2653,445.6026)">
		<circle class="st14" cx="330.73" cy="-156.28" r="0.64"/>
	</g>
	<g transform="translate(89.3073,444.1592)">
		<circle class="st14" cx="330.72" cy="-155.76" r="0.64"/>
	</g>
	<g transform="translate(89.4034,441.3307)">
		<circle class="st14" cx="330.68" cy="-154.75" r="0.64"/>
	</g>
	<g transform="translate(89.4995,439.071)">
		<circle class="st14" cx="330.65" cy="-153.94" r="0.64"/>
	</g>
	<g transform="translate(89.5956,437.2858)">
		<circle class="st14" cx="330.61" cy="-153.3" r="0.64"/>
	</g>
	<g transform="translate(89.6917,435.8961)">
		<circle class="st14" cx="330.58" cy="-152.8" r="0.64"/>
	</g>
	<g transform="translate(89.7877,434.8355)">
		<circle class="st14" cx="330.54" cy="-152.42" r="0.64"/>
	</g>
	<g transform="translate(89.8838,434.0483)">
		<circle class="st14" cx="330.51" cy="-152.14" r="0.64"/>
	</g>
	<g transform="translate(90.0615,433.1592)">
		<circle class="st14" cx="330.45" cy="-151.82" r="0.64"/>
	</g>
	<g transform="translate(90.2392,432.8198)">
		<circle class="st14" cx="330.38" cy="-151.7" r="0.64"/>
	</g>
	<g transform="translate(90.4169,432.8652)">
		<circle class="st14" cx="330.32" cy="-151.71" r="0.64"/>
	</g>
	<g transform="translate(90.5946,433.1747)">
		<circle class="st14" cx="330.25" cy="-151.82" r="0.64"/>
	</g>
	<g transform="translate(90.7724,433.6601)">
		<circle class="st14" cx="330.19" cy="-152" r="0.64"/>
	</g>
	<g transform="translate(90.9501,434.2581)">
		<circle class="st14" cx="330.13" cy="-152.21" r="0.64"/>
	</g>
	<g transform="translate(91.1571,435.0378)">
		<circle class="st14" cx="330.05" cy="-152.49" r="0.64"/>
	</g>
	<g transform="translate(91.3642,435.8612)">
		<circle class="st14" cx="329.98" cy="-152.79" r="0.64"/>
	</g>
	<g transform="translate(91.5712,436.6959)">
		<circle class="st14" cx="329.9" cy="-153.09" r="0.64"/>
	</g>
	<g transform="translate(91.7783,437.5202)">
		<circle class="st14" cx="329.83" cy="-153.38" r="0.64"/>
	</g>
	<g transform="translate(91.9853,438.3201)">
		<circle class="st14" cx="329.76" cy="-153.67" r="0.64"/>
	</g>
	<g transform="translate(92.1923,439.0871)">
		<circle class="st14" cx="329.68" cy="-153.94" r="0.64"/>
	</g>
	<g transform="translate(92.475,440.073)">
		<circle class="st14" cx="329.58" cy="-154.3" r="0.64"/>
	</g>
	<g transform="translate(92.7577,440.9846)">
		<circle class="st14" cx="329.48" cy="-154.62" r="0.64"/>
	</g>
	<g transform="translate(93.0404,441.8219)">
		<circle class="st14" cx="329.38" cy="-154.92" r="0.64"/>
	</g>
	<g transform="translate(93.3231,442.5875)">
		<circle class="st14" cx="329.28" cy="-155.2" r="0.64"/>
	</g>
	<g transform="translate(93.6058,443.2852)">
		<circle class="st14" cx="329.17" cy="-155.45" r="0.64"/>
	</g>
	<g transform="translate(93.8885,443.9198)">
		<circle class="st14" cx="329.07" cy="-155.68" r="0.64"/>
	</g>
	<g transform="translate(94.3698,444.869)">
		<circle class="st14" cx="328.9" cy="-156.02" r="0.64"/>
	</g>
	<g transform="translate(94.8511,445.6735)">
		<circle class="st14" cx="328.73" cy="-156.31" r="0.64"/>
	</g>
	<g transform="translate(95.3324,446.3547)">
		<circle class="st14" cx="328.56" cy="-156.55" r="0.64"/>
	</g>
	<g transform="translate(95.8137,446.9308)">
		<circle class="st14" cx="328.38" cy="-156.76" r="0.64"/>
	</g>
	<g transform="translate(96.295,447.4178)">
		<circle class="st14" cx="328.21" cy="-156.93" r="0.64"/>
	</g>
	<g transform="translate(96.7763,447.8293)">
		<circle class="st14" cx="328.04" cy="-157.08" r="0.64"/>
	</g>
	<g transform="translate(97.8732,448.5456)">
		<circle class="st14" cx="327.64" cy="-157.34" r="0.64"/>
	</g>
	<g transform="translate(98.9701,449.0351)">
		<circle class="st14" cx="327.25" cy="-157.51" r="0.64"/>
	</g>
	<g transform="translate(100.0671,449.3682)">
		<circle class="st14" cx="326.86" cy="-157.63" r="0.64"/>
	</g>
	<g transform="translate(101.164,449.5936)">
		<circle class="st14" cx="326.46" cy="-157.71" r="0.64"/>
	</g>
	<g transform="translate(102.2609,449.7461)">
		<circle class="st14" cx="326.07" cy="-157.77" r="0.64"/>
	</g>
	<g transform="translate(103.3578,449.8497)">
		<circle class="st14" cx="325.68" cy="-157.8" r="0.64"/>
	</g>
	<g transform="translate(105.1197,449.9525)">
		<circle class="st14" cx="325.05" cy="-157.84" r="0.64"/>
	</g>
	<g transform="translate(106.8815,450.0072)">
		<circle class="st14" cx="324.41" cy="-157.86" r="0.64"/>
	</g>
	<g transform="translate(108.6434,450.0341)">
		<circle class="st14" cx="323.78" cy="-157.87" r="0.64"/>
	</g>
	<g transform="translate(110.4052,450.0464)">
		<circle class="st14" cx="323.15" cy="-157.87" r="0.64"/>
	</g>
	<g transform="translate(112.1671,450.052)">
		<circle class="st14" cx="322.52" cy="-157.88" r="0.64"/>
	</g>
	<g transform="translate(113.9289,450.0543)">
		<circle class="st14" cx="321.89" cy="-157.88" r="0.64"/>
	</g>
	<g transform="translate(117.2426,450.0561)">
		<circle class="st14" cx="320.7" cy="-157.88" r="0.64"/>
	</g>
	<g transform="translate(120.5562,450.0549)">
		<circle class="st14" cx="319.51" cy="-157.88" r="0.64"/>
	</g>
	<g transform="translate(123.8699,450.0519)">
		<circle class="st14" cx="318.32" cy="-157.88" r="0.64"/>
	</g>
	<g transform="translate(127.1835,450.0496)">
		<circle class="st14" cx="317.13" cy="-157.88" r="0.64"/>
	</g>
	<g transform="translate(130.4972,450.0496)">
		<circle class="st14" cx="315.94" cy="-157.88" r="0.64"/>
	</g>
	<g transform="translate(133.8108,450.0516)">
		<circle class="st14" cx="314.75" cy="-157.88" r="0.64"/>
	</g>
	<g transform="translate(139.7047,450.0567)">
		<circle class="st14" cx="312.64" cy="-157.88" r="0.64"/>
	</g>
	<g transform="translate(145.5985,450.0629)">
		<circle class="st14" cx="310.53" cy="-157.88" r="0.64"/>
	</g>
	<g transform="translate(151.4923,450.0725)">
		<circle class="st14" cx="308.41" cy="-157.88" r="0.64"/>
	</g>
	<g transform="translate(157.3862,450.0879)">
		<circle class="st14" cx="306.3" cy="-157.89" r="0.64"/>
	</g>
	<g transform="translate(163.28,450.1075)">
		<circle class="st14" cx="304.18" cy="-157.9" r="0.64"/>
	</g>
	<g transform="translate(174.4164,450.1507)">
		<circle class="st14" cx="300.19" cy="-157.91" r="0.64"/>
	</g>
	<g transform="translate(185.5528,450.2047)">
		<circle class="st14" cx="296.2" cy="-157.93" r="0.64"/>
	</g>
	<g transform="translate(196.6892,450.2763)">
		<circle class="st14" cx="292.2" cy="-157.96" r="0.64"/>
	</g>
	<g transform="translate(207.8256,450.3628)">
		<circle class="st14" cx="288.21" cy="-157.99" r="0.64"/>
	</g>
	<g transform="translate(225.3866,450.5253)">
		<circle class="st14" cx="281.91" cy="-158.05" r="0.64"/>
	</g>
	<g transform="translate(242.9476,450.722)">
		<circle class="st14" cx="275.61" cy="-158.12" r="0.64"/>
	</g>
	<g transform="translate(260.5086,450.9538)">
		<circle class="st14" cx="269.31" cy="-158.2" r="0.64"/>
	</g>
	<g transform="translate(278.0695,451.2186)">
		<circle class="st14" cx="263.01" cy="-158.3" r="0.64"/>
	</g>
	<g transform="translate(315.5883,451.874)">
		<circle class="st14" cx="249.56" cy="-158.53" r="0.64"/>
	</g>
	<g transform="translate(353.1071,452.6255)">
		<circle class="st14" cx="236.1" cy="-158.8" r="0.64"/>
	</g>
	<g transform="translate(381.2959,453.2261)">
		<circle class="st14" cx="225.99" cy="-159.02" r="0.64"/>
	</g>
	<g transform="translate(409.4846,453.8309)">
		<circle class="st14" cx="215.88" cy="-159.23" r="0.64"/>
	</g>
	<g transform="translate(437.6733,454.4207)">
		<circle class="st14" cx="205.77" cy="-159.44" r="0.64"/>
	</g>
	<g transform="translate(465.8621,454.9792)">
		<circle class="st14" cx="195.66" cy="-159.64" r="0.64"/>
	</g>
	<g transform="translate(503.5402,455.6554)">
		<circle class="st14" cx="182.14" cy="-159.89" r="0.64"/>
	</g>
	<g transform="translate(541.2183,456.2398)">
		<circle class="st14" cx="168.63" cy="-160.1" r="0.64"/>
	</g>
	<g transform="translate(578.8964,456.7282)">
		<circle class="st14" cx="155.12" cy="-160.27" r="0.64"/>
	</g>
	<g transform="translate(618,457.1382)">
		<circle class="st14" cx="141.09" cy="-160.42" r="0.64"/>
	</g>
	<g>
		<path class="st2" d="M753.96,64.47v-31.1H635.31v31.1H753.96z"/>
	</g>
	<g transform="translate(462,55.75)">
		<text transform="matrix(1 0 0 1 197.041 -13.5665)" class="st10 st6 st7">Enzyme-Reagent Complex</text>
	</g>
	<g>
		<line class="st12" x1="637.88" y1="39.3" x2="657.12" y2="39.3"/>
	</g>
	<g transform="translate(462,70.75)">
		<text transform="matrix(1 0 0 1 197.041 -18.9464)" class="st10 st6 st7">Reactive Enzyme</text>
	</g>
	<g>
		<line class="st13" x1="637.88" y1="48.92" x2="657.12" y2="48.92"/>
	</g>
	<g transform="translate(462,85.75)">
		<text transform="matrix(1 0 0 1 197.041 -24.3263)" class="st10 st6 st7">Anergic Enzyme</text>
	</g>
	<g transform="translate(444,85.75)">
		<circle class="st14" cx="203.5" cy="-27.21" r="0.64"/>
	</g>
	<g>
		<path class="st15" d="M635.31,64.47v-31.1h118.65v31.1H635.31z"/>
		<path class="st16" d="M636.7,184.87V71.35h114.8v113.52H636.7z"/>
	</g>
	<g transform="translate(432,121)">
		<text transform="matrix(1 0 0 1 207.8018 -39.8555)" class="st10 st6 st7">Parameters:</text>
	</g>
	<g transform="translate(432,136)">
		<text transform="matrix(1 0 0 1 207.8018 -45.2364)" class="st10 st6 st7">    k</text>
	</g>
	<g transform="translate(452,142)">
		<text transform="matrix(1 0 0 1 200.6279 -47.3878)" class="st10 st6 st17">o</text>
	</g>
	<g transform="translate(458,142)">
		<text transform="matrix(1 0 0 1 198.4766 -47.3878)" class="st10 st6 st17">n</text>
	</g>
	<g transform="translate(464,136)">
		<text transform="matrix(1 0 0 1 196.3242 -45.2364)" class="st10 st6 st7"> = 5;   k</text>
	</g>
	<g transform="translate(505,142)">
		<text transform="matrix(1 0 0 1 181.6182 -47.3878)" class="st10 st6 st17">o</text>
	</g>
	<g transform="translate(511,142)">
		<text transform="matrix(1 0 0 1 179.4668 -47.3878)" class="st10 st6 st17">f</text>
	</g>
	<g transform="translate(514,142)">
		<text transform="matrix(1 0 0 1 178.3916 -47.3878)" class="st10 st6 st17">f</text>
	</g>
	<g transform="translate(517,136)">
		<text transform="matrix(1 0 0 1 177.3154 -45.2364)" class="st10 st6 st7"> = 2;</text>
	</g>
	<g transform="translate(432,172)">
		<text transform="matrix(1 0 0 1 207.8018 -58.1475)" class="st10 st6 st7">    k</text>
	</g>
	<g transform="translate(452,178)">
		<text transform="matrix(1 0 0 1 200.6279 -60.2999)" class="st10 st6 st17">+</text>
	</g>
	<g transform="translate(458,172)">
		<text transform="matrix(1 0 0 1 198.4766 -58.1475)" class="st10 st6 st7"> = 0.2;   k</text>
	</g>
	<g transform="translate(509,178)">
		<text transform="matrix(1 0 0 1 180.1846 -60.2999)" class="st10 st6 st17">-</text>
	</g>
	<g transform="translate(513,172)">
		<text transform="matrix(1 0 0 1 178.75 -58.1475)" class="st10 st6 st7"> = 0.1;</text>
	</g>
	<g transform="translate(432,208)">
		<text transform="matrix(1 0 0 1 207.8018 -71.0606)" class="st10 st6 st7">    k</text>
	</g>
	<g transform="translate(452,214)">
		<text transform="matrix(1 0 0 1 200.6279 -73.212)" class="st10 st6 st17">c</text>
	</g>
	<g transform="translate(458,214)">
		<text transform="matrix(1 0 0 1 198.4766 -73.212)" class="st10 st6 st17">a</text>
	</g>
	<g transform="translate(464,214)">
		<text transform="matrix(1 0 0 1 196.3242 -73.212)" class="st10 st6 st17">t</text>
	</g>
	<g transform="translate(468,208)">
		<text transform="matrix(1 0 0 1 194.8896 -71.0606)" class="st10 st6 st7"> = 1;</text>
	</g>
	<g transform="translate(432,244)">
		<text transform="matrix(1 0 0 1 207.8018 -83.9718)" class="st10 st6 st7">    gama = 0.5;</text>
	</g>
	<g transform="translate(432,259)">
		<text transform="matrix(1 0 0 1 207.8018 -89.3526)" class="st10 st6 st7">With:</text>
	</g>
	<g transform="translate(432,274)">
		<text transform="matrix(1 0 0 1 207.8018 -94.7325)" class="st10 st6 st7">    C( A</text>
	</g>
	<g transform="translate(469,280)">
		<text transform="matrix(1 0 0 1 194.5312 -96.8853)" class="st10 st6 st17">0</text>
	</g>
	<g transform="translate(475,274)">
		<text transform="matrix(1 0 0 1 192.3789 -94.7325)" class="st10 st6 st7"> ) = 5;    C( S</text>
	</g>
	<g transform="translate(542,280)">
		<text transform="matrix(1 0 0 1 168.3486 -96.8853)" class="st10 st6 st17">0</text>
	</g>
	<g transform="translate(548,274)">
		<text transform="matrix(1 0 0 1 166.1963 -94.7325)" class="st10 st6 st7"> ) = 100;</text>
	</g>
</g>
<g>
	<g>
		<g>
			<defs>
				<rect id="SVGID_00000072253110419678000110000015795713323780232862_" y="0" width="390.42" height="335.45"/>
			</defs>
			<clipPath id="SVGID_00000096744861308790557020000000245689919249112244_">
				<use xlink:href="#SVGID_00000072253110419678000110000015795713323780232862_"  style="overflow:visible;"/>
			</clipPath>
			
				<rect y="0" style="clip-path:url(#SVGID_00000096744861308790557020000000245689919249112244_);fill:#FFFFFF;" width="390.42" height="335.45"/>
		</g>
	</g>
	<g>
		<rect y="0" class="st2" width="390.42" height="335.45"/>
		<path class="st2" d="M50.77,298.43H353.4V25.24H50.77V298.43z"/>
	</g>
	<g>
		<line class="st3" x1="50.77" y1="298.43" x2="50.77" y2="25.24"/>
		<line class="st3" x1="88.6" y1="298.43" x2="88.6" y2="25.24"/>
		<line class="st3" x1="126.42" y1="298.43" x2="126.42" y2="25.24"/>
		<line class="st3" x1="164.25" y1="298.43" x2="164.25" y2="25.24"/>
		<line class="st3" x1="202.08" y1="298.43" x2="202.08" y2="25.24"/>
		<line class="st3" x1="239.91" y1="298.43" x2="239.91" y2="25.24"/>
		<line class="st3" x1="277.74" y1="298.43" x2="277.74" y2="25.24"/>
		<line class="st3" x1="315.57" y1="298.43" x2="315.57" y2="25.24"/>
		<line class="st3" x1="353.4" y1="298.43" x2="353.4" y2="25.24"/>
		<line class="st3" x1="353.4" y1="298.43" x2="50.77" y2="298.43"/>
		<line class="st3" x1="353.4" y1="271.11" x2="50.77" y2="271.11"/>
		<line class="st3" x1="353.4" y1="243.79" x2="50.77" y2="243.79"/>
		<line class="st3" x1="353.4" y1="216.47" x2="50.77" y2="216.47"/>
		<line class="st3" x1="353.4" y1="189.15" x2="50.77" y2="189.15"/>
		<line class="st3" x1="353.4" y1="161.83" x2="50.77" y2="161.83"/>
		<line class="st3" x1="353.4" y1="134.52" x2="50.77" y2="134.52"/>
		<line class="st3" x1="353.4" y1="107.2" x2="50.77" y2="107.2"/>
		<line class="st3" x1="353.4" y1="79.88" x2="50.77" y2="79.88"/>
		<line class="st3" x1="353.4" y1="52.56" x2="50.77" y2="52.56"/>
		<line class="st3" x1="353.4" y1="25.24" x2="50.77" y2="25.24"/>
		<line class="st4" x1="50.77" y1="298.43" x2="353.4" y2="298.43"/>
		<line class="st4" x1="50.77" y1="25.24" x2="353.4" y2="25.24"/>
		<line class="st4" x1="50.77" y1="298.43" x2="50.77" y2="295.4"/>
		<line class="st4" x1="88.6" y1="298.43" x2="88.6" y2="295.4"/>
		<line class="st4" x1="126.42" y1="298.43" x2="126.42" y2="295.4"/>
		<line class="st4" x1="164.25" y1="298.43" x2="164.25" y2="295.4"/>
		<line class="st4" x1="202.08" y1="298.43" x2="202.08" y2="295.4"/>
		<line class="st4" x1="239.91" y1="298.43" x2="239.91" y2="295.4"/>
		<line class="st4" x1="277.74" y1="298.43" x2="277.74" y2="295.4"/>
		<line class="st4" x1="315.57" y1="298.43" x2="315.57" y2="295.4"/>
		<line class="st4" x1="353.4" y1="298.43" x2="353.4" y2="295.4"/>
		<line class="st4" x1="50.77" y1="25.24" x2="50.77" y2="28.27"/>
		<line class="st4" x1="88.6" y1="25.24" x2="88.6" y2="28.27"/>
		<line class="st4" x1="126.42" y1="25.24" x2="126.42" y2="28.27"/>
		<line class="st4" x1="164.25" y1="25.24" x2="164.25" y2="28.27"/>
		<line class="st4" x1="202.08" y1="25.24" x2="202.08" y2="28.27"/>
		<line class="st4" x1="239.91" y1="25.24" x2="239.91" y2="28.27"/>
		<line class="st4" x1="277.74" y1="25.24" x2="277.74" y2="28.27"/>
		<line class="st4" x1="315.57" y1="25.24" x2="315.57" y2="28.27"/>
		<line class="st4" x1="353.4" y1="25.24" x2="353.4" y2="28.27"/>
	</g>
	<g transform="translate(90.5,536)">
		<text transform="matrix(1 0 0 1 -41.4171 -229.7207)" class="st5 st6 st19">0</text>
	</g>
	<g transform="translate(157.9375,536)">
		<text transform="matrix(1 0 0 1 -71.0245 -229.7207)" class="st5 st6 st19">5</text>
	</g>
	<g transform="translate(225.375,536)">
		<text transform="matrix(1 0 0 1 -102.3165 -229.7207)" class="st5 st6 st19">10</text>
	</g>
	<g transform="translate(292.8125,536)">
		<text transform="matrix(1 0 0 1 -131.9249 -229.7207)" class="st5 st6 st19">15</text>
	</g>
	<g transform="translate(360.25,536)">
		<text transform="matrix(1 0 0 1 -161.5333 -229.7207)" class="st5 st6 st19">20</text>
	</g>
	<g transform="translate(427.6875,536)">
		<text transform="matrix(1 0 0 1 -191.1417 -229.7207)" class="st5 st6 st19">25</text>
	</g>
	<g transform="translate(495.125,536)">
		<text transform="matrix(1 0 0 1 -220.7492 -229.7207)" class="st5 st6 st19">30</text>
	</g>
	<g transform="translate(562.5625,536)">
		<text transform="matrix(1 0 0 1 -250.3585 -229.7207)" class="st5 st6 st19">35</text>
	</g>
	<g transform="translate(630,536)">
		<text transform="matrix(1 0 0 1 -279.9659 -229.7207)" class="st5 st6 st19">40</text>
	</g>
	<g transform="translate(360.2502,549.5)">
		<text transform="matrix(1 0 0 1 -181.1664 -233.9648)" class="st5 st8 st20">Time / t (unit)</text>
	</g>
	<g>
		<line class="st4" x1="50.77" y1="298.43" x2="50.77" y2="25.24"/>
		<line class="st4" x1="353.4" y1="298.43" x2="353.4" y2="25.24"/>
		<line class="st4" x1="50.77" y1="298.43" x2="53.79" y2="298.43"/>
		<line class="st4" x1="50.77" y1="271.11" x2="53.79" y2="271.11"/>
		<line class="st4" x1="50.77" y1="243.79" x2="53.79" y2="243.79"/>
		<line class="st4" x1="50.77" y1="216.47" x2="53.79" y2="216.47"/>
		<line class="st4" x1="50.77" y1="189.15" x2="53.79" y2="189.15"/>
		<line class="st4" x1="50.77" y1="161.83" x2="53.79" y2="161.83"/>
		<line class="st4" x1="50.77" y1="134.52" x2="53.79" y2="134.52"/>
		<line class="st4" x1="50.77" y1="107.2" x2="53.79" y2="107.2"/>
		<line class="st4" x1="50.77" y1="79.88" x2="53.79" y2="79.88"/>
		<line class="st4" x1="50.77" y1="52.56" x2="53.79" y2="52.56"/>
		<line class="st4" x1="50.77" y1="25.24" x2="53.79" y2="25.24"/>
		<line class="st4" x1="353.4" y1="298.43" x2="350.37" y2="298.43"/>
		<line class="st4" x1="353.4" y1="271.11" x2="350.37" y2="271.11"/>
		<line class="st4" x1="353.4" y1="243.79" x2="350.37" y2="243.79"/>
		<line class="st4" x1="353.4" y1="216.47" x2="350.37" y2="216.47"/>
		<line class="st4" x1="353.4" y1="189.15" x2="350.37" y2="189.15"/>
		<line class="st4" x1="353.4" y1="161.83" x2="350.37" y2="161.83"/>
		<line class="st4" x1="353.4" y1="134.52" x2="350.37" y2="134.52"/>
		<line class="st4" x1="353.4" y1="107.2" x2="350.37" y2="107.2"/>
		<line class="st4" x1="353.4" y1="79.88" x2="350.37" y2="79.88"/>
		<line class="st4" x1="353.4" y1="52.56" x2="350.37" y2="52.56"/>
		<line class="st4" x1="353.4" y1="25.24" x2="350.37" y2="25.24"/>
	</g>
	<g transform="translate(86.5,532)">
		<text transform="matrix(1 0 0 1 -41.3429 -231.6103)" class="st5 st6 st19">0</text>
	</g>
	<g transform="translate(86.5,483.3)">
		<text transform="matrix(1 0 0 1 -44.7091 -210.2287)" class="st5 st6 st19">10</text>
	</g>
	<g transform="translate(86.5,434.6)">
		<text transform="matrix(1 0 0 1 -44.7091 -188.847)" class="st5 st6 st19">20</text>
	</g>
	<g transform="translate(86.5,385.9)">
		<text transform="matrix(1 0 0 1 -44.7091 -167.4654)" class="st5 st6 st19">30</text>
	</g>
	<g transform="translate(86.5,337.2)">
		<text transform="matrix(1 0 0 1 -44.7091 -146.0838)" class="st5 st6 st19">40</text>
	</g>
	<g transform="translate(86.5,288.5)">
		<text transform="matrix(1 0 0 1 -44.7091 -124.7021)" class="st5 st6 st19">50</text>
	</g>
	<g transform="translate(86.5,239.8)">
		<text transform="matrix(1 0 0 1 -44.7091 -103.3205)" class="st5 st6 st19">60</text>
	</g>
	<g transform="translate(86.5,191.1)">
		<text transform="matrix(1 0 0 1 -44.7091 -81.9388)" class="st5 st6 st19">70</text>
	</g>
	<g transform="translate(86.5,142.4)">
		<text transform="matrix(1 0 0 1 -44.7091 -60.5572)" class="st5 st6 st19">80</text>
	</g>
	<g transform="translate(86.5,93.7)">
		<text transform="matrix(1 0 0 1 -44.7091 -39.1755)" class="st5 st6 st19">90</text>
	</g>
	<g transform="translate(86.5,45)">
		<text transform="matrix(1 0 0 1 -47.5138 -17.7939)" class="st5 st6 st19">100</text>
	</g>
	<g transform="translate(66.5,288.4998) rotate(-90)">
		<text transform="matrix(1 0 0 1 60.7536 -30.88)" class="st5 st8 st20">The number of Product or Reagent / #</text>
	</g>
	<g transform="translate(360.2503,43.25)">
		<text transform="matrix(1 0 0 1 -237.8227 -21.2329)" class="st10 st8 st21">Mimic of the Case of the Amplified System</text>
	</g>
	<g>
		<path class="st22" d="M50.77,298.43L50.77,298.43L50.77,298.43L50.77,298.43L50.77,298.43L50.77,298.43L50.77,298.43L50.77,298.43
			l0.02,0l0.01,0l0.01,0l0.01,0l0.01,0l0.02-0.01l0.02-0.01l0.02-0.01l0.02-0.01l0.02-0.01l0.05-0.04l0.05-0.05l0.05-0.05l0.05-0.06
			l0.05-0.06l0.05-0.06l0.1-0.13l0.1-0.13l0.1-0.14l0.1-0.14l0.1-0.15l0.1-0.15l0.12-0.18l0.12-0.18l0.12-0.18l0.12-0.18l0.12-0.18
			l0.12-0.18l0.16-0.25l0.16-0.25l0.16-0.25l0.16-0.25l0.16-0.25l0.16-0.25l0.28-0.43l0.28-0.43l0.28-0.44l0.28-0.44l0.28-0.44
			l0.28-0.44l0.63-0.99l0.63-0.99l0.63-0.99l0.63-0.98l0.63-0.98l0.63-0.98l1.01-1.57l1.01-1.56l1.01-1.55l1.01-1.54l1.01-1.53
			l1.01-1.52l1.9-2.84l1.9-2.81l1.9-2.78l1.9-2.75l1.9-2.72l1.9-2.69l3.37-4.72l3.37-4.62l3.37-4.53l3.37-4.43l3.37-4.34l6.37-7.94
			l6.37-7.61l6.37-7.28l6.37-6.96l10.05-10.33l10.05-9.56l10.05-8.81l10.05-8.1l21.46-15.1l21.46-12.33l16.13-7.63l16.13-6.43
			l16.13-5.37l16.13-4.46l21.56-4.76l21.56-3.65l21.56-2.78l22.37-2.18"/>
	</g>
	<g>
		<path class="st23" d="M50.77,25.24L50.77,25.24l0,0.01l0,0.01l0,0.05l0,0.05l0,0.05l0,0.05l0.01,0.41l0.01,0.32l0.01,0.31
			l0.01,0.3l0.01,0.29l0.02,0.7l0.02,0.66l0.02,0.61l0.02,0.57l0.02,0.53L51,31.24l0.05,0.92l0.05,0.79l0.05,0.68l0.05,0.59
			l0.05,0.52l0.1,0.79l0.1,0.63l0.1,0.51l0.1,0.42l0.1,0.36l0.1,0.31L52,38.09l0.12,0.29l0.12,0.26l0.12,0.24l0.12,0.23l0.12,0.22
			l0.16,0.29l0.16,0.29l0.16,0.28l0.16,0.27l0.16,0.27l0.16,0.27l0.28,0.45l0.28,0.45l0.28,0.44l0.28,0.44l0.28,0.43l0.28,0.43
			l0.63,0.98l0.63,0.97l0.63,0.96l0.63,0.95l0.63,0.95l0.63,0.94l1.01,1.51L61,52.4L62,53.88l1.01,1.48l1.01,1.47l1.01,1.46
			l1.9,2.72l1.9,2.69l1.9,2.66l1.9,2.63l1.9,2.6l1.9,2.57l3.37,4.5l3.37,4.41l3.37,4.31l3.37,4.22l3.37,4.13l6.37,7.54l6.37,7.22
			l6.37,6.89l6.37,6.58l10.05,9.74l10.05,8.99l10.05,8.26l10.05,7.57l21.46,14.06l21.46,11.42l16.13,7.03l16.13,5.9l16.13,4.91
			l16.13,4.07l21.56,4.33l21.56,3.3l21.56,2.51l22.37,1.97"/>
	</g>
	<g>
		<path class="st2" d="M283.84,47.4V28.61H235.6V47.4H283.84z"/>
	</g>
	<g transform="translate(457,60.25)">
		<text transform="matrix(1 0 0 1 -200.6456 -23.9287)" class="st10 st6 st24">Product</text>
	</g>
	<g>
		<line class="st22" x1="237.84" y1="33.8" x2="254.67" y2="33.8"/>
	</g>
	<g transform="translate(457,75.25)">
		<text transform="matrix(1 0 0 1 -200.6456 -30.5146)" class="st10 st6 st24">Reagent</text>
	</g>
	<g>
		<line class="st23" x1="237.84" y1="42.21" x2="254.67" y2="42.21"/>
	</g>
	<g>
		<path class="st15" d="M235.6,47.4V28.61h48.24V47.4H235.6z"/>
		<path class="st16" d="M132.38,126.48V27.19h100.41v99.29H132.38z"/>
	</g>
	<g transform="translate(241,63)">
		<text transform="matrix(1 0 0 1 -105.8107 -27.6601)" class="st10 st6 st24">Parameters:</text>
	</g>
	<g transform="translate(241,78)">
		<text transform="matrix(1 0 0 1 -105.8107 -34.246)" class="st10 st6 st24">    k</text>
	</g>
	<g transform="translate(261,84)">
		<text transform="matrix(1 0 0 1 -114.5919 -36.8808)" class="st10 st6 st25">o</text>
	</g>
	<g transform="translate(267,84)">
		<text transform="matrix(1 0 0 1 -117.2257 -36.8808)" class="st10 st6 st25">n</text>
	</g>
	<g transform="translate(273,78)">
		<text transform="matrix(1 0 0 1 -119.8605 -34.246)" class="st10 st6 st24"> = 5;   k</text>
	</g>
	<g transform="translate(314,84)">
		<text transform="matrix(1 0 0 1 -137.8615 -36.8808)" class="st10 st6 st25">o</text>
	</g>
	<g transform="translate(320,84)">
		<text transform="matrix(1 0 0 1 -140.4953 -36.8808)" class="st10 st6 st25">f</text>
	</g>
	<g transform="translate(323,84)">
		<text transform="matrix(1 0 0 1 -141.8126 -36.8808)" class="st10 st6 st25">f</text>
	</g>
	<g transform="translate(326,78)">
		<text transform="matrix(1 0 0 1 -143.13 -34.246)" class="st10 st6 st24"> = 2;</text>
	</g>
	<g transform="translate(241,114)">
		<text transform="matrix(1 0 0 1 -105.8107 -50.0517)" class="st10 st6 st24">    k</text>
	</g>
	<g transform="translate(261,120)">
		<text transform="matrix(1 0 0 1 -114.5919 -52.6855)" class="st10 st6 st25">+</text>
	</g>
	<g transform="translate(267,114)">
		<text transform="matrix(1 0 0 1 -117.2257 -50.0517)" class="st10 st6 st24"> = 0.2;   k</text>
	</g>
	<g transform="translate(318,120)">
		<text transform="matrix(1 0 0 1 -139.6173 -52.6855)" class="st10 st6 st25">-</text>
	</g>
	<g transform="translate(322,114)">
		<text transform="matrix(1 0 0 1 -141.3742 -50.0517)" class="st10 st6 st24"> = 0.1;</text>
	</g>
	<g transform="translate(241,150)">
		<text transform="matrix(1 0 0 1 -105.8107 -65.8574)" class="st10 st6 st24">    k</text>
	</g>
	<g transform="translate(261,156)">
		<text transform="matrix(1 0 0 1 -114.5919 -68.4921)" class="st10 st6 st25">c</text>
	</g>
	<g transform="translate(267,156)">
		<text transform="matrix(1 0 0 1 -117.2257 -68.4921)" class="st10 st6 st25">a</text>
	</g>
	<g transform="translate(273,156)">
		<text transform="matrix(1 0 0 1 -119.8605 -68.4921)" class="st10 st6 st25">t</text>
	</g>
	<g transform="translate(277,150)">
		<text transform="matrix(1 0 0 1 -121.6163 -65.8574)" class="st10 st6 st24"> = 1;</text>
	</g>
	<g transform="translate(241,186)">
		<text transform="matrix(1 0 0 1 -105.8107 -81.663)" class="st10 st6 st24">    gama = 0.5;</text>
	</g>
	<g transform="translate(241,201)">
		<text transform="matrix(1 0 0 1 -105.8107 -88.249)" class="st10 st6 st24">With:</text>
	</g>
	<g transform="translate(241,216)">
		<text transform="matrix(1 0 0 1 -105.8107 -94.8349)" class="st10 st6 st24">    C( A</text>
	</g>
	<g transform="translate(278,222)">
		<text transform="matrix(1 0 0 1 -122.0558 -97.4687)" class="st10 st6 st25">0</text>
	</g>
	<g transform="translate(284,216)">
		<text transform="matrix(1 0 0 1 -124.6896 -94.8349)" class="st10 st6 st24"> ) = 5;    C( S</text>
	</g>
	<g transform="translate(351,222)">
		<text transform="matrix(1 0 0 1 -154.1066 -97.4687)" class="st10 st6 st25">0</text>
	</g>
	<g transform="translate(357,216)">
		<text transform="matrix(1 0 0 1 -156.7404 -94.8349)" class="st10 st6 st24"> ) = 100;</text>
	</g>
</g>
<text transform="matrix(1 0 0 1 14.0306 17.9571)" class="st26 st27 st28">a.</text>
<text transform="matrix(1 0 0 1 390.4225 17.9568)" class="st26 st27 st28">b.</text>
</svg>
